<?xml version="1.0" encoding="UTF-8"?>
<!DOCTYPE svg PUBLIC "-//W3C//DTD SVG 1.1//EN" "http://www.w3.org/Graphics/SVG/1.1/DTD/svg11.dtd">
<!-- Creator: CorelDRAW 2018 (64 Bit Versão de avaliação) -->
<svg xmlns="http://www.w3.org/2000/svg" xml:space="preserve" width="101.936mm" height="92.8099mm" version="1.1" style="shape-rendering:geometricPrecision; text-rendering:geometricPrecision; image-rendering:optimizeQuality; fill-rule:evenodd; clip-rule:evenodd"
viewBox="0 0 54965.98 50044.9"
 xmlns:xlink="http://www.w3.org/1999/xlink">
 <defs>
  <style type="text/css">
   <![CDATA[
    .str0 {stroke:#4C466C;stroke-width:95.12;stroke-miterlimit:10}
    .fil14 {fill:none}
    .fil7 {fill:none;fill-rule:nonzero}
    .fil13 {fill:white}
    .fil2 {fill:#F8AE96;fill-rule:nonzero}
    .fil5 {fill:#F58B7E;fill-rule:nonzero}
    .fil3 {fill:#F0595D;fill-rule:nonzero}
    .fil6 {fill:#F3CC82;fill-rule:nonzero}
    .fil1 {fill:#F0B646;fill-rule:nonzero}
    .fil11 {fill:#CF8F77;fill-rule:nonzero}
    .fil0 {fill:#E2E3E0;fill-rule:nonzero}
    .fil12 {fill:#DDC1B0;fill-rule:nonzero}
    .fil10 {fill:#B47B63;fill-rule:nonzero}
    .fil8 {fill:#8FC8ED;fill-rule:nonzero}
    .fil4 {fill:#42ADE2;fill-rule:nonzero}
    .fil9 {fill:#4C466C;fill-rule:nonzero}
   ]]>
  </style>
   <clipPath id="id0">
    <path d="M-0 0l54965.98 0 0 50044.9 -54965.98 0 0 -50044.9z"/>
   </clipPath>
 </defs>
 <g id="Camada_x0020_1">
  <metadata id="CorelCorpID_0Corel-Layer"/>
  <g>
  </g>
  <g style="clip-path:url(#id0)">
   <g>
    <g id="_2347750879248">
     <path class="fil0" d="M20169.23 62575.88c0,1087.93 -4182.46,1969.98 -9341.82,1969.98 -5159.41,0 -9341.98,-882.06 -9341.98,-1969.98 0,-1088.09 4182.56,-1970.15 9341.98,-1970.15 5159.36,0 9341.82,882.06 9341.82,1970.15z"/>
     <path class="fil1" d="M9184.47 28215.68l2913.19 8236.9c0,0 4319.2,1004.57 7985.62,-1607.2 3666.37,-2611.6 4118.34,-8387.56 4118.34,-8387.56 0,0 -5625.14,853.91 -9843.94,-1004.4 0,0 -3314.85,-1105.02 -4168.71,-1205.48 -853.8,-100.4 -1406.34,853.75 -1456.49,1958.77 -50.26,1105.02 451.97,2008.97 451.97,2008.97z"/>
     <path class="fil2" d="M13202.46 59204.35c0,0 -1155.22,2561.56 -853.75,2862.88 301.32,301.32 5524.73,1456.54 5876.25,1305.88 351.52,-150.66 -451.97,-803.71 -1004.4,-1105.02 -552.59,-301.32 -2611.76,-1305.88 -2611.76,-1305.88l401.77 -1004.4 -1808.11 -753.45z"/>
     <path class="fil3" d="M17220.4 62268.09c-311.61,-169.85 -1102.54,-563.65 -1733.16,-874.61l-275.81 723.96 -2673.02 -1245c-189.32,557.55 -314.47,1070.19 -189.7,1194.8 301.32,301.32 5524.73,1456.54 5876.25,1305.88 351.52,-150.66 -451.97,-803.71 -1004.57,-1105.02z"/>
     <path class="fil2" d="M6070.53 42077.72c0,0 -1054.61,-2360.49 -1305.83,-2611.6 -251.11,-251.28 -602.74,50.2 -954.31,552.43 -351.52,502.18 -2059.17,3465.51 -1958.77,3766.83 100.46,301.32 2461.05,-2059.17 2461.05,-2059.17l1054.77 1607.2 703.09 -1255.68z"/>
     <path class="fil3" d="M3408.62 41374.63l1650.01 -1424.94c-126.99,-241.25 -233.7,-423.45 -293.93,-483.57 -251.11,-251.28 -602.74,50.2 -954.31,552.43 -351.52,502.18 -2059.17,3465.51 -1958.77,3766.83 74.36,222.91 1384.99,-1010.5 2062.41,-1667.54l-505.41 -743.21z"/>
     <path class="fil4" d="M11344.15 30978.1l-803.6 150.66c0,0 -954.31,251.11 -2511.14,-552.59 -1557.05,-803.49 -2963.39,-2310.29 -4219.01,-4118.34 -1255.52,-1808.11 -1356.08,-3214.45 -1356.08,-3214.45 0,0 351.57,-401.77 452.08,-903.95 100.4,-502.39 552.48,-1557 200.97,-1557 -351.62,0 -602.79,753.29 -602.79,753.29 0,0 -351.57,-2008.97 -602.74,-1908.51 -251.11,100.46 -50.2,1004.57 -50.2,1004.57 0,0 -452.03,-1406.34 -602.63,-1155.22 -150.77,251.11 150.6,1105.02 150.6,1105.02 0,0 -1004.46,-1757.86 -853.85,-1105.02 150.77,652.83 452.08,1356.14 452.08,1356.14 0,0 -652.83,-753.51 -652.83,-502.23 0,251.11 301.32,1205.26 552.48,1757.86 251.01,552.43 451.92,1406.18 853.75,3013.37 401.77,1607.2 3113.88,5725.76 4972.25,7483.61 1858.42,1757.86 5122.85,2008.97 5122.85,2008.97 0,0 1707.65,2712.06 1255.68,7131.93 -451.97,4419.87 -1105.02,6077.27 -1757.86,6127.47 -652.94,50.26 -3164.14,-3113.94 -3867.39,-4319.42 -703.09,-1205.26 -1205.32,-2511.14 -1205.32,-2511.14l-2008.97 3314.85c0,0 3013.54,4922.05 5826.1,6579.5 2812.57,1657.24 3415.2,1456.32 4319.36,0 903.95,-1456.54 2159.57,-7634.32 2159.57,-7634.32 0,0 753.51,5374.08 -552.38,9392.18 -1305.88,4017.89 -4470.13,6579.45 -4470.13,6579.45l3917.54 1506.74c0,0 3465.67,-3114.15 4419.82,-9693.39 954.2,-6579.5 -1155.22,-16021.88 -1607.2,-17327.76 -451.97,-1305.72 -602.63,-2209.83 -602.63,-2209.83 0,0 1305.72,-1506.79 1356.14,-5072.71 50.2,-3565.97 -1356.14,-7332.79 -1908.73,-8287.16 -552.43,-954.36 -1054.61,-1657.45 -1054.61,-1657.45 0,0 -1607.2,-2260.03 -1657.4,-2059.17 -50.26,200.86 150.66,703.09 150.66,703.09 0,0 -1054.82,-1205.26 -1105.02,-954.2 -50.26,251.11 502.39,1054.61 502.39,1054.61 0,0 -1155.28,-1054.61 -1155.28,-803.49 0,251.11 602.63,1004.57 602.63,1004.57 0,0 -1255.46,-452.14 -1004.35,-100.4 251.06,351.52 1205.26,1205.26 1205.26,1205.26 0,0 -954.2,-150.66 -1004.4,50.2 -50.2,201.07 853.75,452.19 1004.4,452.19 150.66,0 1456.54,552.38 1456.54,552.38 0,0 1707.65,3164.19 1858.31,6227.98 150.66,3063.74 -903.95,4670.77 -2410.74,5474.48l-3164.19 1657.4z"/>
     <path class="fil5" d="M11394.35 29220.25l652.89 1355.92 -703.09 401.93 1105.02 1858.31 3063.74 -1105.02 -1004.57 -2410.69 -803.71 301.32 -1004.35 -2159.63c0,0 -150.66,1506.74 -1305.94,1757.86z"/>
     <path class="fil2" d="M12499.38 26156.51c0,0 -703.03,-1808.11 -1657.4,-2310.29 -954.31,-502.39 -2209.94,-301.53 -2410.9,1155.01 -200.91,1456.59 897.8,3207.22 1657.51,3767.04 954.26,703.09 2260.14,803.49 2661.91,-150.87 401.77,-954.15 -251.11,-2460.89 -251.11,-2460.89z"/>
     <path class="fil6" d="M8782.64 24097.29c0,0 753.4,652.89 2059.33,1004.4 1305.88,351.73 3515.71,351.73 3515.71,351.73 0,0 -1908.51,-1557 -3113.99,-1858.31 -1205.37,-301.53 -2511.2,-200.86 -2461.05,502.18z"/>
     <path class="fil6" d="M8883.15 23745.77c0,0 -904.06,200.86 -904.06,1406.12 0,1205.48 1205.37,3063.79 1205.37,3063.79 0,0 -150.66,-3565.97 -301.32,-4469.91z"/>
     <path class="fil3" d="M10540.55 31128.76c0,0 -954.31,251.11 -2511.31,-552.59 -1556.89,-803.49 -2963.23,-2310.29 -4218.85,-4118.34 -1255.52,-1808.11 -1356.08,-3214.45 -1356.08,-3214.45 0,0 351.57,-401.77 452.08,-903.95 100.4,-502.39 552.48,-1557 200.97,-1557 -351.62,0 -602.79,753.29 -602.79,753.29 0,0 -351.57,-2008.97 -602.74,-1908.51 -251.11,100.46 -50.2,1004.57 -50.2,1004.57 0,0 -452.03,-1406.34 -602.63,-1155.22 -150.77,251.11 150.6,1105.02 150.6,1105.02 0,0 -1004.46,-1757.86 -853.85,-1105.02 150.77,652.83 452.08,1356.14 452.08,1356.14 0,0 -652.83,-753.51 -652.83,-502.23 0,251.11 301.32,1205.26 552.48,1757.86 251.01,552.43 451.92,1406.18 853.75,3013.37 401.77,1607.2 3113.88,5725.76 4972.3,7483.61 1858.37,1757.86 5122.8,2008.97 5122.8,2008.97l-1230.55 -3479.74 -75.22 14.24z"/>
     <path class="fil3" d="M16065.34 16513.22c0,0 -1607.2,-2260.03 -1657.4,-2059.17 -50.26,200.86 150.66,703.09 150.66,703.09 0,0 -1054.82,-1205.26 -1105.02,-954.2 -50.26,251.11 502.39,1054.61 502.39,1054.61 0,0 -1155.28,-1054.61 -1155.28,-803.49 0,251.11 602.63,1004.57 602.63,1004.57 0,0 -1255.46,-452.14 -1004.35,-100.4 251.06,351.52 1205.26,1205.26 1205.26,1205.26 0,0 -954.2,-150.66 -1004.4,50.2 -50.2,201.07 853.75,452.19 1004.4,452.19 150.66,0 1456.54,552.38 1456.54,552.38 0,0 1707.65,3164.19 1858.31,6227.98 125.37,2548.03 -584.57,4086.37 -1693.58,4995.11 456.93,777.82 1367.14,2131.8 2447.03,2689.2 0,0 1305.72,-1506.79 1356.14,-5072.71 50.2,-3565.97 -1356.14,-7332.79 -1908.73,-8287.16 -552.43,-954.36 -1054.61,-1657.45 -1054.61,-1657.45z"/>
     <path class="fil7 str0" d="M13152.26 39566.57c0,0 3666.37,-100.46 6127.47,-1105.02"/>
     <polygon class="fil8" points="13302.92,34493.81 13805.31,36603.24 16266.2,37708.26 17572.14,35598.84 16768.43,33439.05 "/>
     <path class="fil7 str0" d="M14032.81 39444.06c0,0 -310.86,7769.13 -1398.52,9944.55 -1087.55,2175.43 -7147.57,-6992.27 -7147.57,-6992.27"/>
     <path class="fil2" d="M6569.47 32435.61l562.46 -2410.36c-1204.51,-855.2 -2311.85,-2113.36 -3321.54,-3567.42 -1255.52,-1808.11 -1356.08,-3214.45 -1356.08,-3214.45 0,0 351.57,-401.77 452.08,-903.95 100.4,-502.39 552.48,-1557 200.97,-1557 -351.62,0 -602.79,753.29 -602.79,753.29 0,0 -351.57,-2008.97 -602.74,-1908.51 -251.11,100.46 -50.2,1004.57 -50.2,1004.57 0,0 -452.03,-1406.34 -602.63,-1155.22 -150.77,251.11 150.6,1105.02 150.6,1105.02 0,0 -1004.46,-1757.86 -853.85,-1105.02 150.77,652.83 452.08,1356.14 452.08,1356.14 0,0 -652.83,-753.51 -652.83,-502.23 0,251.11 301.32,1205.26 552.48,1757.86 251.01,552.43 451.92,1406.18 853.75,3013.37 390.88,1563.47 2967.59,5502.41 4818.25,7333.92z"/>
     <path class="fil2" d="M17119.95 18170.67c-552.43,-954.36 -1054.61,-1657.45 -1054.61,-1657.45 0,0 -1607.2,-2260.03 -1657.4,-2059.17 -50.26,200.86 150.66,703.09 150.66,703.09 0,0 -1054.82,-1205.26 -1105.02,-954.2 -50.26,251.11 502.39,1054.61 502.39,1054.61 0,0 -1155.28,-1054.61 -1155.28,-803.49 0,251.11 602.63,1004.57 602.63,1004.57 0,0 -1255.46,-452.14 -1004.35,-100.4 251.06,351.52 1205.26,1205.26 1205.26,1205.26 0,0 -954.2,-150.66 -1004.4,50.2 -50.2,201.07 853.75,452.19 1004.4,452.19 150.66,0 1456.54,552.38 1456.54,552.38 0,0 1707.65,3164.19 1858.31,6227.98 50.2,1020.74 -35.75,1876.75 -225.45,2598.44l2320.96 459.79c6.63,-145.75 11.75,-293.55 14.07,-446.64 50.2,-3565.97 -1356.14,-7332.79 -1908.73,-8287.16z"/>
     <path class="fil7 str0" d="M16567.52 43283.14c0,0 1588.76,5352.18 870.68,9138.96 -718.29,3786.78 -4113.22,7442.9 -4113.22,7442.9"/>
    </g>
    <g id="_2383516916736">
     <path class="fil0" d="M39110.61 62575.93c0,1088.04 -4182.4,1969.93 -9341.87,1969.93 -5159.47,0 -9341.92,-881.89 -9341.92,-1969.93 0,-1088.09 4182.46,-1970.04 9341.92,-1970.04 5159.47,0 9341.87,881.95 9341.87,1970.04z"/>
     <path class="fil9" d="M32467.05 21875.7c0,0 -275.6,-1000.58 -518.14,-2489.68 -242.38,-1489.05 -1522,-2165.13 -3213.1,-1838.15 -1691.26,326.82 -1986.32,1779.59 -3027.61,3377.62 -1041.29,1598.46 -5523.76,3993.73 -5230.05,6173.52 293.71,2179.96 2226.01,1918.43 1667.54,2911.41 -558.31,992.76 -2062.62,2903.21 134.48,4525.24 2196.89,1621.86 4469.7,-39.96 5480.73,1697.73 1011.04,1737.74 2136.23,3237.64 5691.89,2203.03 3555.67,-1034.87 3672.62,-3481.31 3078.19,-4847.15 -594.44,-1365.79 -170.29,-1827.68 1785.03,-2431.23 1955.53,-603.6 2649.08,-2863.63 1657.08,-4158.14 -992,-1294.67 -1990.15,-331.57 -4144.98,-1852.43 -2154.61,-1520.76 -3072.09,-2466.77 -3361.06,-3271.77z"/>
     <path class="fil10" d="M28259.47 23293.42c0,0 -12.73,836.81 -242.11,1614.8 -229.22,778.2 -516.3,1111.44 -516.3,1111.44 0,0 573.51,-5.28 1181.86,124.24 608.56,129.52 1243.87,-135.83 1243.87,-135.83 0,0 -177.67,-629.43 -124.02,-1419.39 53.65,-790.01 71.55,-1053.26 71.55,-1053.26l-1614.85 -242z"/>
     <path class="fil11" d="M30900.78 21136.11c53.22,-786.99 -229.6,-1641.06 -1041.5,-1907.22 -862.48,-282.66 -1729.33,187.97 -1907,1089.44 -259.09,1314.99 -541,4049.86 1457.51,4088.85 1325.89,25.72 1429.52,-2367.5 1491,-3271.07z"/>
     <path class="fil3" d="M30498.79 60963.77c0,0 -2435.82,1896.17 -2162.65,2209.4 273.17,312.91 980.62,17.31 2691.68,-602.58 1711.27,-620.21 2207.4,-1421 2331.58,-1805.25 124.4,-384.3 -2860.61,198.43 -2860.61,198.43z"/>
     <path class="fil11" d="M30770.45 25271.71c0,0 -1533.76,513.07 -3046.27,57.64 -1512.08,-455.59 -2575.8,-1674.11 -2932.49,-4211.52 -356.69,-2537.4 -441.89,-4527.34 -319.76,-6326.66 122.29,-1799.54 119.28,-1755.59 265.94,-1966.16 146.67,-210.4 1054.23,-589.74 1177.66,-1110.36 123.64,-520.67 -255.64,-1428.23 -361.44,-1170.86 -105.58,257.21 -35.75,526.55 -35.75,526.55 0,0 0.97,-661.19 -280.18,-415.79 -281.36,245.34 -7.06,749.08 -7.06,749.08 0,0 -382.14,-863.83 -443.78,-603.39 -61.85,260.39 39.96,708.21 39.96,708.21 0,0 -435.04,-735.06 -449.87,-515.49 -15.04,219.3 165.65,804.84 165.65,804.84 0,0 -1080.06,323.37 -1103.84,674.51 -24,351.14 -48.75,1363.52 -48.75,1363.52 0,0 -239.25,4172.37 171.63,7859.88 410.89,3687.29 2512.06,5858.3 2512.06,5858.3 0,0 -1513.97,867.06 -1453.84,1929.49 60.07,1062.21 755.55,1859.07 722.66,2341.83 -32.73,482.82 -364.67,1474.23 -124.61,3783.22 239.84,2309.1 366.94,3684.65 366.94,3684.65 0,0 -2434.31,2083.33 -3891.98,4717.74 -1457.51,2634.79 -1048.51,3103.53 97.01,4415.67 1145.36,1312.57 5295.46,5121.61 5952.28,6488.97 656.66,1367.35 1417.18,3799.88 1518.39,4909.11 101,1109.01 193.85,1688.67 193.85,1688.67 0,0 1802.39,78.29 2785.82,-119.49 983.48,-197.62 1943.94,-705.73 1943.94,-705.73 0,0 -272.04,-2487.37 -935.92,-5045.75 -663.89,-2558.33 -2790.41,-5656.9 -3446.85,-7024.2 -656.66,-1367.35 -1027.05,-2406.54 -1027.05,-2406.54 0,0 1398.74,-2418.13 2468.76,-3888.74 1069.81,-1470.45 1967.07,-2996.82 1506.96,-4659.4 -460.33,-1662.58 -2780.92,-3848.41 -2917.66,-4431.09 -136.8,-582.25 65.62,-965.36 813.36,-2237.44 747.79,-1271.8 1218.2,-3003.61 2369.87,-4380.3 1151.61,-1376.84 2452.86,-3007.77 2882.4,-4786.38 429.33,-1778.56 734.85,-4976.46 924.11,-6462.65 135.07,-1061.83 7.6,-1410.54 273.71,-1436.43 266.54,-26.04 1978.94,-571.03 2002.71,-922.17 23.94,-351.19 -73.98,-1504.1 -170.82,-1378.41 -96.63,125.58 -123.64,520.67 -123.64,520.67l-58.77 216.5c0,0 -241.62,-986.56 -353.24,-641.29 -111.51,345.1 -188.35,825.01 -188.35,825.01 0,0 -232.62,-1118.13 -385.22,-819.83 -152.33,298.24 -21.68,968.44 -21.68,968.44 0,0 -408.19,-1129.93 -472.9,-825.81 -64.87,304.39 -9.87,793.08 -9.87,793.08 0,0 -1097.2,-74.57 -1144.98,627.54 -47.56,702.28 -270.31,3332.54 -1312.89,6348.18 -1042.58,3015.42 -2646,5199.37 -4086.2,5630.58z"/>
     <path class="fil4" d="M29454.86 61513.34c0,0 1802.39,78.29 2785.82,-119.49 983.48,-197.62 1943.94,-705.73 1943.94,-705.73 0,0 -272.04,-2487.58 -935.92,-5045.75 -663.89,-2558.33 -2790.41,-5656.9 -3446.85,-7024.2 -656.66,-1367.35 -1027.05,-2406.54 -1027.05,-2406.54 0,0 1398.74,-2418.13 2468.76,-3888.74 1069.81,-1470.45 1967.29,-2996.82 1506.96,-4659.4 -259.47,-937.81 -1110.74,-2041.65 -1828.44,-2930.6 -275.65,177.89 -578.69,383.33 -908.91,622.64 -1272.02,921.42 -3707.83,716.19 -4761.9,572.92 218.38,2114.39 334.05,3364.73 334.05,3364.73 0,0 -2434.31,2083.33 -3891.98,4717.74 -1457.51,2634.79 -1048.51,3103.32 97.01,4415.67 1145.36,1312.57 5295.46,5121.61 5952.28,6488.97 656.66,1367.35 1417.18,3799.88 1518.39,4909.11 101,1109.01 193.85,1688.67 193.85,1688.67z"/>
     <path class="fil7 str0" d="M29708.46 35989.34c0,0 1492.67,1148.59 1424.94,3107.52 -67.51,1958.93 -4013.73,7058.11 -3932.15,7783.42 81.64,725.74 3097.65,6428.47 4145.2,9313.99 1047.6,2885.47 894.24,5199.59 894.24,5199.59"/>
     <path class="fil1" d="M31218.65 35104.21c-672.68,-853.91 -1315.64,-1573.33 -1385.79,-1871.79 -136.8,-582.25 65.62,-965.36 813.36,-2237.44 747.79,-1271.8 1218.2,-3003.61 2369.87,-4380.3 517.97,-619.19 1065.44,-1290.08 1551.06,-2002.23 -402.9,-208.3 -832.23,-523.91 -1137.91,-1002.52 -102.94,-160.9 -194.6,-313.07 -277.54,-457.26 -764.34,1126.11 -1596.57,1884.09 -2381.25,2119.02 0,0 -1533.97,513.07 -3046.27,57.64 -1315.97,-396.43 -2291.63,-1371.83 -2758.05,-3290.64 -338.04,277.75 -747.41,611.74 -1179.76,960.08 676.45,2890.22 2287.8,4555.22 2287.8,4555.22 0,0 -1513.97,867.06 -1453.84,1929.49 60.07,1062.21 755.55,1859.07 722.66,2341.83 -32.73,482.82 -364.67,1474.23 -124.61,3783.22 35.75,344.67 68.64,665.56 99.49,967.09 748.17,9.11 1880.58,-9.92 3117.23,-149.15 1159.21,-130.33 2129.76,-761.11 2783.56,-1322.27z"/>
     <path class="fil7 str0" d="M27902.83 39924.72c0,0 -3407.87,5364.53 -3263.14,6847.12 144.56,1482.42 3432.46,8725.43 3432.46,8725.43"/>
    </g>
    <g id="_2383516905696">
     <path class="fil0" d="M54620.29 62575.88c0,1087.93 -4182.46,1969.98 -9341.92,1969.98 -5159.31,0 -9341.92,-882.06 -9341.92,-1969.98 0,-1088.09 4182.62,-1970.15 9341.92,-1970.15 5159.47,0 9341.92,882.06 9341.92,1970.15z"/>
     <path class="fil2" d="M44592.8 32693.58c0,0 985.15,3251.49 3941.26,2955.89 2955.89,-295.6 3941.05,-2611.06 3941.05,-2611.06 0,0 -196.87,-1773.44 -147.8,-2019.75 49.45,-246.37 886.85,98.52 886.85,98.52 0,0 1182.4,-295.82 1280.97,0 98.52,295.44 49.23,393.95 49.23,541.75 0,147.8 0,985.37 0,1330.25 0,344.88 -591.2,788.28 -1133.17,1675.09 -541.75,886.64 -1330.2,2167.61 -3941.26,2857.38 -2611.01,689.55 -4039.56,393.95 -4926.42,-689.77 -886.8,-1083.88 49.28,-4138.29 49.28,-4138.29z"/>
     <path class="fil4" d="M44592.8 32693.58c0,0 -936.08,3054.41 -49.28,4138.29 166.24,203.18 351.52,378.59 560.03,525.04l1572.58 -2042.08c-1527.72,-788.45 -2083.33,-2621.25 -2083.33,-2621.25z"/>
     <path class="fil9" d="M40208.08 60134.35c0,0 -788.28,2266.18 -492.47,2561.56 295.44,295.6 4975.7,936.08 5468.39,591.42 492.68,-345.05 -98.52,-886.8 -1133.17,-1231.69 -1034.44,-344.88 -1231.52,-492.68 -1231.52,-492.68l98.57 -886.85 -2709.79 -541.75z"/>
     <path class="fil12" d="M44143.85 62088.53l-191.53 804.68 -4291.27 -660.27c-23.62,223.67 -13.16,395.46 54.57,462.97 295.44,295.6 4975.7,936.08 5468.39,591.42 477.48,-334.42 -64.49,-853.15 -1040.15,-1198.79z"/>
     <path class="fil4" d="M48977.46 50231.9c0,0 -147.8,-640.32 -246.32,-1280.81 -98.57,-640.48 -1822.94,-4187.58 -1822.94,-4187.58 0,0 2315.62,2364.85 2561.72,3152.98 246.37,788.28 -492.47,2315.41 -492.47,2315.41zm3793.25 -4285.99c-1527.12,-2217.05 -4778.62,-5074.43 -5074.22,-5517.83 -295.6,-443.24 -2315.41,-3399.13 -2413.98,-6404.47 -98.52,-3004.96 1231.52,-3793.3 1428.61,-5222.07 197.08,-1428.55 -1724.21,-2216.84 -2512.49,-1822.72 0,0 -1428.55,-295.6 -5074.22,1477.84 -3645.66,1773.65 -5025.2,5911.84 -5123.72,7636.21 -98.52,1724.21 1379.49,1872.01 1872.01,1132.95 492.85,-738.78 837.57,-2413.92 1773.65,-3891.76 936.08,-1478.05 3054.41,-2266.34 3054.41,-2266.34 0,0 -1231.47,3596.54 -344.83,8227.41 886.8,4630.98 3547.09,9064.76 3694.89,10641.33 147.8,1576.41 -1231.52,3793.46 -2167.61,5763.93 -936.08,1970.52 -2906.61,4581.59 -2906.61,4581.59l4975.7 1478.05c0,0 1379.49,-2266.34 2906.61,-5566.96 0,0 4138.35,-2463.15 5665.69,-4187.52 1527.12,-1724.42 1773.44,-3842.75 246.1,-6059.64z"/>
     <polygon class="fil5" points="45085.49,25057.58 43410.35,27816.39 44346.43,30969.37 44986.92,28456.66 46070.64,27619.14 "/>
     <path class="fil2" d="M45873.77 24269.24c0,0 -246.37,-886.8 -640.48,-886.8 -394.17,0 -788.28,886.8 -788.28,1428.61 0,542.13 640.48,492.85 640.48,492.85 0,0 -98.57,2561.56 936.08,2906.45 1034.44,345.05 2350.03,-849.38 2955.89,-1576.41 738.84,-886.8 1083.72,-1576.35 1083.72,-1576.35l-2660.29 -1970.74 -1527.12 1182.4z"/>
     <path class="fil9" d="M45184 23875.13c0,0 1625.64,-3891.98 2611.01,-3891.98 985.21,0 4483.23,2512.44 4335.43,4039.78 -147.8,1527.12 -2069.25,1034.65 -2069.25,1034.65l-2561.78 -1724.42 -1675.09 1330.04 -640.32 -788.07z"/>
     <path class="fil2" d="M35080.43 32578.45c-707.29,1373.45 -946.17,2905.91 -992.43,3712.26 -98.52,1724.37 1292.19,1674.17 1784.71,935.11 437.15,-655.48 758.79,-2047.58 1479.19,-3385.22 -702.71,-708 -1610.27,-1075.9 -2271.46,-1262.15z"/>
     <polyline class="fil7 str0" points="53214.16,31117.17 53460.48,32545.78 53066.36,32693.58 52524.61,31757.44 "/>
     <path class="fil2" d="M36887.19 34857.19c0,0 -1063.56,2221.04 217.2,3255.65 1280.97,1034.49 3497.86,1330.09 3941.26,1330.09 443.45,0 1034.65,-246.37 1182.45,-492.68 147.64,-246.37 1330.04,98.52 1330.04,98.52l147.8 443.4 591.25 295.65c0,0 246.32,393.95 -49.28,443.4 -295.6,49.23 -492.68,49.23 -541.97,197.08 -49.23,147.8 -394.12,1034.44 -1132.95,1182.24 -739.05,147.8 -1822.94,0 -3497.86,-197.08 -1675.14,-197.08 -3512.69,-633.26 -4581.75,-2857.38 -1531.87,-3187 587.05,-5977.62 587.05,-5977.62l1806.76 2278.74z"/>
     <path class="fil3" d="M48977.46 50231.9c0,0 -147.8,-640.32 -246.32,-1280.81 -98.57,-640.48 -1822.94,-4187.58 -1822.94,-4187.58 0,0 2315.62,2364.85 2561.72,3152.98 246.37,788.28 -492.47,2315.41 -492.47,2315.41zm-754.26 -9240.77l-6426.9 3085.09c1031.2,2660.67 2159.79,4848.82 2254.53,5860.24 147.8,1576.41 -1231.52,3793.46 -2167.61,5763.93 -936.08,1970.52 -2906.61,4581.59 -2906.61,4581.59l4975.7 1478.05c0,0 1379.49,-2266.34 2906.61,-5566.96 0,0 4138.35,-2463.15 5665.69,-4187.52 1527.12,-1724.42 1773.44,-3842.75 246.1,-6059.64 -1209.63,-1756.13 -3500.29,-3913.12 -4547.51,-4954.78z"/>
     <path class="fil7 str0" d="M48977.46 50231.9c0,0 -246.32,3350.01 -2118.54,5961.18"/>
     <path class="fil7 str0" d="M43065.46 43531.99c0,0 2561.94,4285.93 2561.94,7586.71 0,3300.78 -4286.15,9902.28 -4286.15,9902.28"/>
     <path class="fil7 str0" d="M46809.64 44517.15c0,0 4581.8,2611.22 4089.12,4828.12 -492.68,2216.84 -2364.69,3152.98 -2364.69,3152.98"/>
    </g>
    <g id="_2383516905248">
     <path class="fil13" d="M6703.14 13880.53c97.44,-653.43 -1.73,-1304.75 93.28,-1972.57 -78.46,18.71 -133.67,29.93 -187.76,45.08 -427.65,119.54 -855.47,238.33 -1282.48,360.47 -257.91,73.82 -513.77,154.65 -771.57,229.06 -71.99,20.76 -102.56,61.96 -107.41,135.34 -18.39,277.48 -37.85,554.91 -61.36,832.02 -21.41,252.41 -40.87,505.46 -75.87,756.2 -26.85,192.39 -29.12,389.75 -103.85,574.7 -67.02,165.59 -148.07,317.06 -306.06,415.58 -211.05,131.68 -532.75,82.55 -712.25,-64.33 -130.06,-106.44 -194.87,-232.73 -217.41,-394.44 -26.21,-187.81 46.53,-359.44 211.48,-456.56 168.13,-98.95 332.59,-209.16 538.9,-211.7 72.36,-0.92 144.73,-0.11 234.18,-0.11 5.34,-80.07 12.35,-165.76 16.61,-251.6 20.33,-409.81 36.72,-819.88 61.09,-1229.53 14.34,-243.51 40.82,-486.32 61.96,-729.46 22.49,-259.53 90.64,-508.16 171.42,-749.46 350.49,-130.44 692.09,-260.77 1035.95,-384.84 446.42,-161.06 904.16,-281.58 1370.97,-367.1 155.08,-28.42 310,-38.07 481.74,12.35 1.62,39.26 9.81,85.63 4.26,130.22 -20.54,164.35 -52.52,327.52 -67.51,492.31 -20.01,218.11 -32.19,437.25 -40.17,656.23 -8.9,243.57 -11.7,487.51 -12.02,731.29 -0.05,82.5 23.02,165.06 22.54,247.5 -0.97,145.64 -16.72,291.23 -17.31,436.93 -0.75,174.87 17.2,350.12 9.92,524.44 -8.25,199.51 -34.24,398.32 -54.78,597.24 -14.94,145.48 -35.16,290.42 -50.09,435.96 -6.79,66.86 -22.32,121.32 -91.99,152.71 -32.51,14.67 -58.67,49.45 -80.94,80.07 -123.97,170.56 -291.45,269.61 -496.57,308.16 -23.62,4.42 -49.18,7.12 -72.58,3.13 -147.37,-25.02 -278.13,-88.76 -397.51,-176.97 -159.99,-118.2 -161.12,-284.01 -117.33,-450.46 39.69,-150.66 136.69,-270.9 228.74,-398.43 168.67,-233.75 417.57,-240.65 653.53,-297.81 41.68,-10.08 84.77,-14.51 128.28,-21.62zm-2207.08 -2014.04l0 0c0,136.05 0,279.21 0,430.62 775.45,-211.7 1515.15,-537.33 2321.5,-665.56 9.65,-129.04 18.55,-247.83 29.5,-392.39 -796.53,212.56 -1565.68,417.79 -2351,627.33z"/>
    </g>
    <g id="_2383516904320">
     <path class="fil13" d="M34439.73 4303.83c-8.63,364.57 -28.69,723.36 -22.27,1081.51 6.79,377.83 41.41,755.07 58.77,1132.9 8.41,184.36 3.45,369.31 8.41,553.94 1.35,46.48 17.85,92.58 32.25,162.68 725.09,-77.59 1443.33,-154.38 2185.83,-233.91 0,-99.54 -2.59,-192.88 0.49,-285.95 18.71,-572.17 37.31,-1144.33 58.99,-1716.55 9.44,-249.17 13.1,-499.75 45.24,-746.33 14.67,-112.59 69.24,-237.2 144.78,-321.48 303.26,-338.9 732.75,-471.66 1162.88,-334.21 265.24,84.66 451.27,380.53 363.16,755.07 -64.76,275.22 -247.77,463.51 -471.33,611.04 -211.75,139.82 -436.88,87.73 -654.29,-2.64 -47.61,-19.84 -90.48,-51.23 -144.4,-82.45 -66.22,124.51 -55.27,245.02 -58.4,361.01 -9.81,359.82 -38.01,721.26 -13.7,1078.98 22.27,327.36 -77.97,657.96 35.21,982.35 22.76,65.08 4.91,143.27 13.05,214.66 11.86,105.31 30.09,209.92 48.75,335.23 -155.67,70.85 -293.5,211.16 -510.91,214.07 -468.37,6.09 -936.46,32.19 -1404.5,54.41 -245.51,11.65 -490.64,32.89 -735.98,48.85 -148.07,9.6 -289.83,-1.56 -380.53,-143.38 -15.37,-24.1 -37.85,-62.28 -29.12,-80.07 69.13,-139.33 -22.65,-271.17 -12.4,-407 7.66,-101.8 -69.02,-187.81 -29.17,-305.9 34.29,-101.64 0.38,-225.77 -0.7,-339.98 -1.13,-114.15 2.48,-228.52 1.4,-342.67 -6.2,-660.71 -11.59,-1321.52 -20.76,-1982.22 -3.83,-275.43 -17.85,-550.76 -22.97,-826.14 -0.92,-44.92 8.63,-97.87 32.68,-133.94 138.42,-206.47 313.93,-378.32 520.62,-515.6 165.38,-109.73 337.23,-207.33 534.26,-253.38 289.02,-67.56 580.04,104.77 683.24,383.12 123.37,332.7 -11.16,586.83 -223.13,817.89 -137.29,149.69 -285.73,294.2 -498.94,333.56 -51.28,9.6 -105.69,14.51 -157.07,8.41 -171.09,-20.65 -341.43,-47.56 -539.44,-75.87zm2276.91 3048.53l0 0c-55.76,0 -85.25,-1.4 -114.42,0.32 -245.67,14.07 -491.12,31.6 -736.9,42.54 -329.41,14.83 -658.98,25.24 -988.55,36.34 -84.06,2.8 -168.29,1.62 -252.3,1.62 -63.03,-0.11 -109.46,25.99 -109.89,91.78 -0.81,123.27 6.42,246.59 10.62,376.59 384.57,-45.73 745.9,-99.92 1109.28,-128.71 368.39,-29.23 738.95,-33.43 1133.33,-49.61 -18.87,-137.18 -34.02,-246.75 -51.17,-370.88z"/>
    </g>
    <g id="_2383516902560">
     <path class="fil13" d="M18416.34 10033.63c-19.57,311.56 -38.28,612.98 -57.53,914.35 -28.36,445.34 -62.12,890.41 -83.69,1336.08 -13.1,269.66 -6.74,540.19 -10.46,810.45 -1.83,127.36 -6.69,131.35 -163.71,179.56 -16.72,-41.63 -44.54,-83.79 -49.88,-128.66 -26.1,-218.33 -45.51,-437.47 -68.37,-656.18 -58.51,-555.72 -51.77,-1112.9 -28.42,-1669.59 14.83,-352.54 46.27,-704.38 69.88,-1056.6 3.24,-49.5 6.42,-99.22 5.12,-148.72 -8.57,-339.65 228.04,-623.82 568.39,-682.65 228.2,-39.47 450.41,-11.43 668.2,59.58 124.02,40.44 249.82,69.72 357.61,158.48 84.71,69.67 156.21,140.09 185.17,244.48 35.1,126.55 71.28,253.92 90.75,383.44 36.45,241.57 -113.02,399.29 -300.78,483.46 -220.59,98.89 -467.77,142.46 -705.46,27.55 -151.2,-73.01 -296.62,-158.05 -476.83,-255.05z"/>
    </g>
    <g id="_2383516900096">
     <path class="fil13" d="M45389.93 7243.12c-31.65,17.74 -60.99,32.51 -88.54,50.09 -24.59,15.53 -44.86,41.68 -71.23,50.31 -316.41,104.34 -634.5,196.98 -972.91,110.38 -37.58,-9.65 -78.62,-19.63 -115.77,-14.13 -150.39,22.05 -280.72,-64.44 -425.07,-74.09 -24.86,-1.78 -51.55,-25.94 -71.23,-45.83 -102.83,-104.12 -210.35,-204.85 -303.69,-317.06 -250.25,-300.83 -408.19,-646.47 -423.77,-1039.13 -9.06,-228.79 47.67,-454.35 119.92,-674.56 158.21,-482.39 412.61,-917.43 665.77,-1351.77 91.13,-156.16 78.89,-280.93 6.31,-436.44 -313.18,-671.76 -529.62,-1376.3 -666.1,-2104.09 -31.27,-166.56 -29.44,-340.25 -32.62,-510.8 -3.02,-155.67 96.74,-266.1 254.73,-285.57 140.04,-17.31 282.5,-37.8 422.32,-30.2 286.97,15.53 515.6,132.92 630.67,417.79 38.12,94.31 86.01,184.68 131.46,275.92 128.82,259.58 161.23,542.08 183.44,823.82 23.35,296.79 22.38,596.27 -55.97,886.48 -37.96,140.3 -103.53,273.17 -158.1,408.89 -27.18,67.73 -51.06,137.93 -87.95,200.21 -60.88,102.88 -53.49,203.61 -10.62,307.36 96.47,233.7 192.5,467.61 291.07,700.39 14.83,35.05 42.06,64.76 62.98,96.03 145.1,-1.73 286.16,-12.13 426.15,-3.61 379.29,23.08 654.18,224.75 832.07,545.53 142.46,256.61 245.18,534.53 233.97,836.71 -4.15,110.7 -29.66,221.19 -52.47,330.38 -35.32,169.1 -124.18,326.39 -230.25,445.4 -115.23,129.3 -85.03,238.77 -43.3,356.21 107.09,301.1 162.9,612.82 190.4,927.46 18.93,216.01 -7.66,436.17 -14.07,654.4 -0.22,4.96 -1.02,9.98 -2.86,14.4 -126.61,306.06 -284.22,589.26 -620.37,705.46 -87.3,30.14 -195.41,27.5 -287.57,8.47 -97.81,-20.17 -188.3,-76.62 -281.26,-119.01 -70.75,-32.14 -137.61,-75.87 -211.21,-98.79 -268.53,-83.31 -410.94,-371.58 -299.43,-628.08 81.15,-186.79 180.75,-356.15 399.45,-417.19 175.79,-48.96 355.62,33.43 411.15,206.57 19.2,60.02 32.14,123.75 37.04,186.57 14.45,185.06 -141.76,292.36 -308.65,214.34 -39.79,-18.55 -75.98,-46.64 -117.23,-59.8 -38.12,-12.13 -84.82,-23.35 -120.62,-12.08 -129.79,40.93 -154.54,122.46 -72.36,233.54 286.6,387.21 771.14,389.1 1081.73,35.97 81.37,-92.48 95.87,-214.77 103.1,-331.03 5.99,-95.55 -13,-192.99 -23.73,-289.4 -7.55,-67.62 -22.11,-134.54 -29.33,-202.1 -28.47,-264.92 -77.05,-525.74 -169.8,-775.94 -26.31,-71.07 -73.77,-134.32 -115.66,-208.35zm-982.51 -2169.55l0 0c-186.03,160.42 -275.65,349.04 -350.71,544.13 -76.25,198.32 -42.49,406.52 -28.26,612.82 -74.41,-144.67 -102.45,-295.33 -87.41,-453.86 28.52,-300.02 124.45,-572.6 331.24,-797.72 47.67,-51.93 48.85,-97.06 18.33,-157.88 -81.21,-161.5 -156.05,-326.12 -235.15,-488.64 -16.66,-34.19 -40.76,-64.76 -68.27,-107.68 -28.36,33.54 -53.22,55.97 -69.56,83.47 -94.85,159.18 -194.07,316.09 -279.64,480.07 -125.96,241.41 -235.26,488.75 -302.66,756.36 -73.28,290.37 -48.42,569.63 33.27,849.22 83.58,286.33 267.72,504.66 488.21,694.73 93.45,80.72 202.75,147.48 329.09,140.04 243.24,-14.34 486.32,-37.8 728.05,-69.02 122.13,-15.8 229.71,-78.83 324.56,-159.88 53.92,-46.05 74.36,-93.61 41.74,-165.86 -74.3,-164.84 -127.69,-336.63 -217.41,-497.48 -196.76,-352.27 -370.28,-717.59 -553.83,-1077.25 -28.42,-55.7 -60.02,-109.79 -101.59,-185.55zm-210.46 -2413.76l0 0c-5.55,-25.51 -20.65,-66.92 -22.81,-109.14 -6.2,-116.58 -7.5,-233.32 -9.65,-350.06 -0.38,-24 -2.64,-50.85 6.63,-71.61 41.57,-93.12 9.65,-180.64 -9.76,-271.39 -49.5,-231.49 -157.45,-440.7 -257.32,-650.41 -59.42,-124.99 -146.78,-256.02 -311.45,-275 -64.27,-7.39 -130.6,2.48 -205.23,4.8 11.7,76.41 22.11,133.08 28.96,190.24 53.71,446.15 133.08,886.1 290.91,1309.33 74.79,200.59 140.14,404.68 214.12,605.49 18.39,50.04 53.87,93.77 81.42,140.41 11,-2.37 21.95,-4.69 32.84,-7.06 51.28,-163.76 102.45,-327.47 161.33,-515.6zm572.87 2199.53l0 0c258.66,594.97 579.55,1136.4 839.19,1706.14 26.31,-10.08 36.02,-12.13 43.89,-17.15 8.03,-5.12 16.12,-11.86 21.14,-19.84 109.95,-174.33 170.99,-365.05 141.17,-569.74 -51.71,-355.51 -190.83,-675.21 -443.08,-936.89 -156.64,-162.57 -348.93,-218.38 -602.31,-162.52z"/>
    </g>
    <g id="_2383516899072">
     <path class="fil13" d="M11920.42 10726.53c3.34,-137.66 12.46,-263.79 8.25,-389.48 -10.84,-323.42 9.76,-644.21 62.71,-963.26 3.13,-19.36 7.6,-38.55 9.06,-57.91 21.51,-276.19 40.98,-552.54 64.71,-828.46 8.36,-97.06 26.69,-193.36 40.87,-290.05 49.39,-337.82 100.19,-675.48 147.64,-1013.68 14.18,-101.32 18.39,-204.04 28.74,-305.95 11.38,-111.56 83.53,-178.27 196.17,-193.31 252.62,-33.7 456.4,75.38 643.61,223.08 143.7,113.29 255.97,256.72 318.79,429.54 32.73,89.89 38.61,189.21 59.75,283.63 32.46,146.02 67.94,291.5 101.64,437.2 16.39,71.12 23.13,145.91 49.18,212.99 62.33,160.8 189.86,255.16 347.31,313.34 40.66,14.88 81.96,28.15 124.72,42.87 -17.58,60.18 -60.55,64.98 -105.04,65.3 -256.08,2.43 -450.41,-110 -587.16,-322.99 -180.15,-280.5 -315.17,-584.35 -431.7,-895.05 -77.97,-207.6 -199.67,-375.08 -386.84,-531.51 -10.35,60.28 -19.9,99.86 -23.62,140.04 -24.64,266.21 -47.72,532.53 -72.04,798.8 -33.97,372.98 -70.15,745.63 -102.34,1118.77 -29.6,343.37 -50.09,687.61 -83.58,1030.5 -40.23,412.66 -22.54,826.95 -46.05,1239.67 -9.92,174.17 -27.39,352.92 -77.38,518.73 -81.64,270.58 -255.37,466.69 -547.85,529.78 -52.57,11.22 -104.23,26.53 -156.91,36.99 -231.38,46.48 -427.28,-25.34 -579.55,-198.16 -175.46,-199.24 -235.42,-434.61 -170.66,-695.59 24.59,-99.16 47.29,-200.7 88.59,-293.39 23.56,-52.52 77.38,-97.06 127.2,-131.25 75.87,-51.93 167.64,-82.02 239.09,-138.63 187.7,-148.5 395.25,-205.71 630.51,-169.37 18.76,2.86 38.61,-1.24 82.18,-3.18z"/>
    </g>
    <g id="_2383516898560">
     <path class="fil13" d="M48417.86 14088.94c3.34,-137.66 12.46,-263.79 8.25,-389.48 -10.84,-323.42 9.76,-644.21 62.71,-963.26 3.13,-19.36 7.6,-38.55 9.06,-57.91 21.51,-276.19 40.98,-552.54 64.71,-828.46 8.36,-97.06 26.69,-193.36 40.87,-290.05 49.39,-337.82 100.19,-675.48 147.64,-1013.68 14.18,-101.32 18.39,-204.04 28.74,-305.95 11.38,-111.56 83.53,-178.27 196.17,-193.31 252.62,-33.7 456.4,75.38 643.61,223.08 143.7,113.29 255.97,256.72 318.79,429.54 32.73,89.89 38.61,189.21 59.75,283.63 32.46,146.02 67.94,291.5 101.64,437.2 16.39,71.12 23.13,145.91 49.18,212.99 62.33,160.8 189.86,255.16 347.31,313.34 40.66,14.88 81.96,28.15 124.72,42.87 -17.58,60.18 -60.55,64.98 -105.04,65.3 -256.08,2.43 -450.41,-110 -587.16,-322.99 -180.15,-280.5 -315.17,-584.35 -431.7,-895.05 -77.97,-207.6 -199.67,-375.08 -386.84,-531.51 -10.35,60.28 -19.9,99.86 -23.62,140.04 -24.64,266.21 -47.72,532.53 -72.04,798.8 -33.97,372.98 -70.15,745.63 -102.34,1118.77 -29.6,343.37 -50.09,687.61 -83.58,1030.5 -40.23,412.66 -22.54,826.95 -46.05,1239.67 -9.92,174.17 -27.39,352.92 -77.38,518.73 -81.64,270.58 -255.37,466.69 -547.85,529.78 -52.57,11.22 -104.23,26.53 -156.91,36.99 -231.38,46.48 -427.28,-25.34 -579.55,-198.16 -175.46,-199.24 -235.42,-434.61 -170.66,-695.59 24.59,-99.16 47.29,-200.7 88.59,-293.39 23.56,-52.52 77.38,-97.06 127.2,-131.25 75.87,-51.93 167.64,-82.02 239.09,-138.63 187.7,-148.5 395.25,-205.71 630.51,-169.37 18.76,2.86 38.61,-1.24 82.18,-3.18z"/>
    </g>
    <g id="_2383516897568">
     <path class="fil13" d="M41662.09 17541.78c-160.8,-547.42 -276.51,-1078.12 -483.9,-1581.48 -38.12,-92.31 -71.07,-187.7 -95.82,-284.38 -123.75,-484 -258.02,-966.07 -291.56,-1468.29 -3.4,-50.36 -28.42,-99.27 -45.19,-155.08 85.74,-156.54 94.74,-144.67 262.17,-89.83 175.41,57.37 275.54,204.15 418.97,297.81 252.95,165.11 519.32,299.21 803.92,396 259.26,88.22 516.46,180.42 755.5,315.12 209.7,118.14 354.54,283.74 404.25,531.78 38.72,193.15 73.33,377.94 13.8,574.86 -59.75,197.46 -170.82,347.96 -342.78,454.45 -29.12,18.01 -85.95,25.88 -108.98,9.33 -25.56,-18.39 -43.95,-74.2 -36.18,-106.66 37.69,-157.34 30.9,-312.42 0.92,-469.07 -73.5,-384.95 -287.84,-659.36 -642.8,-824.84 -209.7,-97.76 -418.81,-196.98 -629.05,-293.77 -35.53,-16.39 -75.33,-23.46 -135.83,-41.68 10.51,63.25 12.29,104.12 24.26,141.76 73.01,229.6 149.26,458.17 222.7,687.67 123.59,386.4 225.12,778.09 292.2,1178.79 39.96,238.33 103.26,473.27 132.59,712.58 24.8,202.1 31.01,409.32 17.15,612.34 -11.65,170.29 -11.86,348.61 -101.32,505.9 -54.35,95.6 -105.96,192.88 -163.44,286.65 -15.31,25.02 -44.81,48.1 -72.74,57.64 -205.23,70.1 -412.99,124.4 -633.53,84.93 -276.62,-49.61 -558.63,-355.35 -552.97,-633.85 2.43,-117.44 10.84,-253 101.59,-350.06 119.81,-128.06 201.24,-294.52 368.45,-376.05 27.93,-13.64 56.08,-27.82 85.63,-37.26 138.2,-44.22 276.89,-86.98 431.97,-135.29z"/>
    </g>
    <g id="_2383516897056">
     <path class="fil13" d="M23488.94 4595.98c-160.8,-547.42 -276.51,-1078.12 -483.9,-1581.48 -38.12,-92.31 -71.07,-187.7 -95.82,-284.38 -123.75,-484 -258.02,-966.07 -291.56,-1468.29 -3.4,-50.36 -28.42,-99.27 -45.19,-155.08 85.74,-156.54 94.74,-144.67 262.17,-89.83 175.41,57.37 275.54,204.15 418.97,297.81 252.95,165.11 519.32,299.21 803.92,396 259.26,88.22 516.46,180.42 755.5,315.12 209.7,118.14 354.54,283.74 404.25,531.78 38.72,193.15 73.33,377.94 13.8,574.86 -59.75,197.46 -170.82,347.96 -342.78,454.45 -29.12,18.01 -85.95,25.88 -108.98,9.33 -25.56,-18.39 -43.95,-74.2 -36.18,-106.66 37.69,-157.34 30.9,-312.42 0.92,-469.07 -73.5,-384.95 -287.84,-659.36 -642.8,-824.84 -209.7,-97.76 -418.81,-196.98 -629.05,-293.77 -35.53,-16.39 -75.33,-23.46 -135.83,-41.68 10.51,63.25 12.29,104.12 24.26,141.76 73.01,229.6 149.26,458.17 222.7,687.67 123.59,386.4 225.12,778.09 292.2,1178.79 39.96,238.33 103.26,473.27 132.59,712.58 24.8,202.1 31.01,409.32 17.15,612.34 -11.65,170.29 -11.86,348.61 -101.32,505.9 -54.35,95.6 -105.96,192.88 -163.44,286.65 -15.31,25.02 -44.81,48.1 -72.74,57.64 -205.23,70.1 -412.99,124.4 -633.53,84.93 -276.62,-49.61 -558.63,-355.35 -552.97,-633.85 2.43,-117.44 10.84,-253 101.59,-350.06 119.81,-128.06 201.24,-294.52 368.45,-376.05 27.93,-13.64 56.08,-27.82 85.63,-37.26 138.2,-44.22 276.89,-86.98 431.97,-135.29z"/>
    </g>
    <g id="_2383516894144">
     <path class="fil13" d="M15245.94 3890.52c12.94,-275.92 120.89,-444.75 332.86,-545.15 88.11,-41.74 176,-86.49 268.26,-116.63 203.93,-66.65 413.96,-98.08 621.4,-22.49 129.04,46.91 249.87,116.09 375.35,173.41 284.17,129.68 386.78,499.37 252.57,803.81 -103.75,235.32 -281.53,390.66 -526.76,464.59 -209.97,63.2 -421.72,119.28 -645.28,76.95 -310.32,-58.77 -525.09,-226.58 -611.91,-537.39 -30.63,-109.95 -50.09,-223.13 -66.49,-297.11zm1654.38 72.2l0 0c12.13,-87.84 -38.45,-166.73 -129.25,-221.19 -83.58,-50.04 -168.13,-98.95 -255.16,-142.35 -144.83,-72.15 -295.82,-89.89 -448.9,-27.93 -90,36.45 -179.56,75.33 -265.24,120.84 -239.84,127.26 -299.64,361.92 -126.45,567.64 229.87,272.85 542.02,364.94 884.86,224.69 195.68,-80.02 349.68,-317.17 340.14,-521.69z"/>
    </g>
    <g id="_2383516891360">
     <path class="fil13" d="M19635.95 17349.33c12.94,-275.92 120.89,-444.75 332.86,-545.15 88.11,-41.74 176,-86.49 268.26,-116.63 203.93,-66.65 413.96,-98.08 621.4,-22.49 129.04,46.91 249.87,116.09 375.35,173.41 284.17,129.68 386.78,499.37 252.57,803.81 -103.75,235.32 -281.53,390.66 -526.76,464.59 -209.97,63.2 -421.72,119.28 -645.28,76.95 -310.32,-58.77 -525.09,-226.58 -611.91,-537.39 -30.63,-109.95 -50.09,-223.13 -66.49,-297.11zm1654.38 72.2l0 0c12.13,-87.84 -38.45,-166.73 -129.25,-221.19 -83.58,-50.04 -168.13,-98.95 -255.16,-142.35 -144.83,-72.15 -295.82,-89.89 -448.9,-27.93 -90,36.45 -179.56,75.33 -265.24,120.84 -239.84,127.26 -299.64,361.92 -126.45,567.64 229.87,272.85 542.02,364.94 884.86,224.69 195.68,-80.02 349.68,-317.17 340.14,-521.69z"/>
    </g>
    <g id="_2383516893184">
     <path class="fil13" d="M39341.23 8703.92c12.94,-275.92 120.89,-444.75 332.86,-545.15 88.11,-41.74 176,-86.49 268.26,-116.63 203.93,-66.65 413.96,-98.08 621.4,-22.49 129.04,46.91 249.87,116.09 375.35,173.41 284.17,129.68 386.78,499.37 252.57,803.81 -103.75,235.32 -281.53,390.66 -526.76,464.59 -209.97,63.2 -421.72,119.28 -645.28,76.95 -310.32,-58.77 -525.09,-226.58 -611.91,-537.39 -30.63,-109.95 -50.09,-223.13 -66.49,-297.11zm1654.38 72.2l0 0c12.13,-87.84 -38.45,-166.73 -129.25,-221.19 -83.58,-50.04 -168.13,-98.95 -255.16,-142.35 -144.83,-72.15 -295.82,-89.89 -448.9,-27.93 -90,36.45 -179.56,75.33 -265.24,120.84 -239.84,127.26 -299.64,361.92 -126.45,567.64 229.87,272.85 542.02,364.94 884.86,224.69 195.68,-80.02 349.68,-317.17 340.14,-521.69z"/>
    </g>
    <g id="_2383516889536">
     <path class="fil13" d="M30021.37 1569.72c63.03,-12.35 109.68,-21.51 164.03,-32.25 137.29,114.48 177.73,281.31 208.08,444.05 96.79,517.49 186.73,1036.27 270.63,1555.97 49.39,305.31 83.96,613.09 122.13,920.12 34.83,279.42 76.35,558.63 95.17,839.19 19.95,297.49 -104.88,552.7 -297.65,769.68 -201.24,226.63 -727.62,262.49 -949.08,57.27 -173.74,-161.06 -331.4,-478.56 -163.28,-820.04 43.03,-87.57 72.2,-182.15 117.23,-268.59 62.6,-120.41 160.2,-196.98 298.67,-223.88 178.7,-34.73 355.56,-79.16 538.41,-120.57 -29.33,-177.78 -55.97,-348.61 -85.95,-518.73 -57.75,-326.17 -118.63,-651.86 -176,-978.14 -45.02,-256.67 -81.1,-515.01 -131.52,-770.54 -55.59,-282.17 -23.78,-562.41 -10.89,-853.53z"/>
    </g>
    <g id="_2383516890496">
     <path class="fil13" d="M50312.19 17404.87c12.94,-275.92 120.89,-444.75 332.86,-545.15 88.11,-41.74 176,-86.49 268.26,-116.63 203.93,-66.65 413.96,-98.08 621.4,-22.49 129.04,46.91 249.87,116.09 375.35,173.41 284.17,129.68 386.78,499.37 252.57,803.81 -103.75,235.32 -281.53,390.66 -526.76,464.59 -209.97,63.2 -421.72,119.28 -645.28,76.95 -310.32,-58.77 -525.09,-226.58 -611.91,-537.39 -30.63,-109.95 -50.09,-223.13 -66.49,-297.11zm1654.38 72.2l0 0c12.13,-87.84 -38.45,-166.73 -129.25,-221.19 -83.58,-50.04 -168.13,-98.95 -255.16,-142.35 -144.83,-72.15 -295.82,-89.89 -448.9,-27.93 -90,36.45 -179.56,75.33 -265.24,120.84 -239.84,127.26 -299.64,361.92 -126.45,567.64 229.87,272.85 542.02,364.94 884.86,224.69 195.68,-80.02 349.68,-317.17 340.14,-521.69z"/>
    </g>
    <g id="_2383516887744">
     <path class="fil13" d="M31034.61 13906.9c97.44,-653.43 -1.73,-1304.75 93.28,-1972.57 -78.46,18.71 -133.67,29.93 -187.76,45.08 -427.65,119.54 -855.47,238.33 -1282.48,360.47 -257.91,73.82 -513.77,154.65 -771.57,229.06 -71.99,20.76 -102.56,61.96 -107.41,135.34 -18.39,277.48 -37.85,554.91 -61.36,832.02 -21.41,252.41 -40.87,505.46 -75.87,756.2 -26.85,192.39 -29.12,389.75 -103.85,574.7 -67.02,165.59 -148.07,317.06 -306.06,415.58 -211.05,131.68 -532.75,82.55 -712.25,-64.33 -130.06,-106.44 -194.87,-232.73 -217.41,-394.44 -26.21,-187.81 46.53,-359.44 211.48,-456.56 168.13,-98.95 332.59,-209.16 538.9,-211.7 72.36,-0.92 144.73,-0.11 234.18,-0.11 5.34,-80.07 12.35,-165.76 16.61,-251.6 20.33,-409.81 36.72,-819.88 61.09,-1229.53 14.34,-243.51 40.82,-486.32 61.96,-729.46 22.49,-259.53 90.64,-508.16 171.42,-749.46 350.49,-130.44 692.09,-260.77 1035.95,-384.84 446.42,-161.06 904.16,-281.58 1370.97,-367.1 155.08,-28.42 310,-38.07 481.74,12.35 1.62,39.26 9.81,85.63 4.26,130.22 -20.54,164.35 -52.52,327.52 -67.51,492.31 -20.01,218.11 -32.19,437.25 -40.17,656.23 -8.9,243.57 -11.7,487.51 -12.02,731.29 -0.05,82.5 23.02,165.06 22.54,247.5 -0.97,145.64 -16.72,291.23 -17.31,436.93 -0.75,174.87 17.2,350.12 9.92,524.44 -8.25,199.51 -34.24,398.32 -54.78,597.24 -14.94,145.48 -35.16,290.42 -50.09,435.96 -6.79,66.86 -22.32,121.32 -91.99,152.71 -32.51,14.67 -58.67,49.45 -80.94,80.07 -123.97,170.56 -291.45,269.61 -496.57,308.16 -23.62,4.42 -49.18,7.12 -72.58,3.13 -147.37,-25.02 -278.13,-88.76 -397.51,-176.97 -159.99,-118.2 -161.12,-284.01 -117.33,-450.46 39.69,-150.66 136.69,-270.9 228.74,-398.43 168.67,-233.75 417.57,-240.65 653.53,-297.81 41.68,-10.08 84.77,-14.51 128.28,-21.62zm-2207.08 -2014.04l0 0c0,136.05 0,279.21 0,430.62 775.45,-211.7 1515.15,-537.33 2321.5,-665.56 9.65,-129.04 18.55,-247.83 29.5,-392.39 -796.53,212.56 -1565.68,417.79 -2351,627.33z"/>
    </g>
    <g id="_2383516889120">
     <path class="fil13" d="M5829.66 21498.3c-34.35,-128.06 -60.23,-247.02 -98.3,-361.92 -98.08,-295.76 -166.35,-597.72 -204.31,-906.75 -2.32,-18.76 -3.4,-37.75 -7.33,-55.97 -55.27,-260.93 -112.54,-521.48 -165.59,-782.84 -18.76,-91.88 -27.93,-185.82 -41.2,-278.99 -46.32,-325.47 -91.34,-651.16 -139.39,-976.36 -14.56,-97.49 -38.55,-193.47 -56.83,-290.42 -19.84,-106.17 28.69,-187.38 128.6,-231.92 224.15,-99.92 442.05,-54.57 655.21,30.9 163.55,65.52 306.22,167.48 411.26,310 54.68,74.09 87.14,164.3 132.38,245.72 69.72,126.02 142.08,250.74 212.83,376.16 34.51,61.2 61.09,128.44 103.42,183.33 101.27,131.52 244.75,183.98 406.03,194.87 41.52,2.7 83.31,3.72 126.82,5.66 0.11,60.39 -38.23,76.46 -79.21,88.86 -235.91,71.93 -445.99,20.98 -630.24,-138.53 -242.76,-210.08 -450.14,-453.97 -642.21,-709.24 -128.55,-170.5 -286.49,-292.1 -501.96,-385.65 6.85,58.51 8.84,97.71 16.28,135.78 49.66,252.57 100.83,504.87 150.82,757.39 70.15,353.73 138.09,707.78 209.92,1061.13 66.11,325.2 140.79,648.73 203.18,974.53 75.11,392.12 204.2,769.9 294.79,1157.54 38.18,163.55 70.69,333.35 69.72,500.13 -1.83,272.14 -108.92,500.56 -361.92,638.38 -45.51,24.64 -89.03,52.84 -134.86,76.89 -201.07,105.85 -401.56,92.85 -589.21,-25.34 -216.23,-136.31 -335.66,-337.39 -346.93,-596.05 -4.26,-98.25 -10.89,-198.22 2.05,-295.06 7.44,-54.95 45.08,-110.76 81.8,-155.83 55.92,-68.59 132.49,-121.38 183.12,-193.15 132.92,-188.19 309.08,-297.49 536.2,-327.95 18.12,-2.43 35.32,-11.65 75.06,-25.29z"/>
    </g>
    <g id="_2383516888800">
     <path class="fil13" d="M9714.58 5865.04c63.03,-12.35 109.68,-21.51 164.03,-32.25 137.29,114.48 177.73,281.31 208.08,444.05 96.79,517.49 186.73,1036.27 270.63,1555.97 49.39,305.31 83.96,613.09 122.13,920.12 34.83,279.42 76.35,558.63 95.17,839.19 19.95,297.49 -104.88,552.7 -297.65,769.68 -201.24,226.63 -727.62,262.49 -949.08,57.27 -173.74,-161.06 -331.4,-478.56 -163.28,-820.04 43.03,-87.57 72.2,-182.15 117.23,-268.59 62.6,-120.41 160.2,-196.98 298.67,-223.88 178.7,-34.73 355.56,-79.16 538.41,-120.57 -29.33,-177.78 -55.97,-348.61 -85.95,-518.73 -57.75,-326.17 -118.63,-651.86 -176,-978.14 -45.02,-256.67 -81.1,-515.01 -131.52,-770.54 -55.59,-282.17 -23.78,-562.41 -10.89,-853.53z"/>
    </g>
    <g id="_2383516887200">
     <path class="fil13" d="M33947.69 43515.82c-8.63,364.57 -28.69,723.36 -22.27,1081.51 6.79,377.83 41.41,755.07 58.77,1132.9 8.41,184.36 3.45,369.31 8.41,553.94 1.35,46.48 17.85,92.58 32.25,162.68 725.09,-77.59 1443.33,-154.38 2185.83,-233.91 0,-99.54 -2.59,-192.88 0.49,-285.95 18.71,-572.17 37.31,-1144.33 58.99,-1716.55 9.44,-249.17 13.1,-499.75 45.24,-746.33 14.67,-112.59 69.24,-237.2 144.78,-321.48 303.26,-338.9 732.75,-471.66 1162.88,-334.21 265.24,84.66 451.27,380.53 363.16,755.07 -64.76,275.22 -247.77,463.51 -471.33,611.04 -211.75,139.82 -436.88,87.73 -654.29,-2.64 -47.61,-19.84 -90.48,-51.23 -144.4,-82.45 -66.22,124.51 -55.27,245.02 -58.4,361.01 -9.81,359.82 -38.01,721.26 -13.7,1078.98 22.27,327.36 -77.97,657.96 35.21,982.35 22.76,65.08 4.91,143.27 13.05,214.66 11.86,105.31 30.09,209.92 48.75,335.23 -155.67,70.85 -293.5,211.16 -510.91,214.07 -468.37,6.09 -936.46,32.19 -1404.5,54.41 -245.51,11.65 -490.64,32.89 -735.98,48.85 -148.07,9.6 -289.83,-1.56 -380.53,-143.38 -15.37,-24.1 -37.85,-62.28 -29.12,-80.07 69.13,-139.33 -22.65,-271.17 -12.4,-407 7.66,-101.8 -69.02,-187.81 -29.17,-305.9 34.29,-101.64 0.38,-225.77 -0.7,-339.98 -1.13,-114.15 2.48,-228.52 1.4,-342.67 -6.2,-660.71 -11.59,-1321.52 -20.76,-1982.22 -3.83,-275.43 -17.85,-550.76 -22.97,-826.14 -0.92,-44.92 8.63,-97.87 32.68,-133.94 138.42,-206.47 313.93,-378.32 520.62,-515.6 165.38,-109.73 337.23,-207.33 534.26,-253.38 289.02,-67.56 580.04,104.77 683.24,383.12 123.37,332.7 -11.16,586.83 -223.13,817.89 -137.29,149.69 -285.73,294.2 -498.94,333.56 -51.28,9.6 -105.69,14.51 -157.07,8.41 -171.09,-20.65 -341.43,-47.56 -539.44,-75.87zm2276.91 3048.53l0 0c-55.76,0 -85.25,-1.4 -114.42,0.32 -245.67,14.07 -491.12,31.6 -736.9,42.54 -329.41,14.83 -658.98,25.24 -988.55,36.34 -84.06,2.8 -168.29,1.62 -252.3,1.62 -63.03,-0.11 -109.46,25.99 -109.89,91.78 -0.81,123.27 6.42,246.59 10.62,376.59 384.57,-45.73 745.9,-99.92 1109.28,-128.71 368.39,-29.23 738.95,-33.43 1133.33,-49.61 -18.87,-137.18 -34.02,-246.75 -51.17,-370.88z"/>
    </g>
    <g id="_2383516917888">
     <path class="fil13" d="M9483.85 40921.2c-160.8,-547.42 -276.51,-1078.12 -483.9,-1581.48 -38.12,-92.31 -71.07,-187.7 -95.82,-284.38 -123.75,-484 -258.02,-966.07 -291.56,-1468.29 -3.4,-50.36 -28.42,-99.27 -45.19,-155.08 85.74,-156.54 94.74,-144.67 262.17,-89.83 175.41,57.37 275.54,204.15 418.97,297.81 252.95,165.11 519.32,299.21 803.92,396 259.26,88.22 516.46,180.42 755.5,315.12 209.7,118.14 354.54,283.74 404.25,531.78 38.72,193.15 73.33,377.94 13.8,574.86 -59.75,197.46 -170.82,347.96 -342.78,454.45 -29.12,18.01 -85.95,25.88 -108.98,9.33 -25.56,-18.39 -43.95,-74.2 -36.18,-106.66 37.69,-157.34 30.9,-312.42 0.92,-469.07 -73.5,-384.95 -287.84,-659.36 -642.8,-824.84 -209.7,-97.76 -418.81,-196.98 -629.05,-293.77 -35.53,-16.39 -75.33,-23.46 -135.83,-41.68 10.51,63.25 12.29,104.12 24.26,141.76 73.01,229.6 149.26,458.17 222.7,687.67 123.59,386.4 225.12,778.09 292.2,1178.79 39.96,238.33 103.26,473.27 132.59,712.58 24.8,202.1 31.01,409.32 17.15,612.34 -11.65,170.29 -11.86,348.61 -101.32,505.9 -54.35,95.6 -105.96,192.88 -163.44,286.65 -15.31,25.02 -44.81,48.1 -72.74,57.64 -205.23,70.1 -412.99,124.4 -633.53,84.93 -276.62,-49.61 -558.63,-355.35 -552.97,-633.85 2.43,-117.44 10.84,-253 101.59,-350.06 119.81,-128.06 201.24,-294.52 368.45,-376.05 27.93,-13.64 56.08,-27.82 85.63,-37.26 138.2,-44.22 276.89,-86.98 431.97,-135.29z"/>
    </g>
    <g id="_2383516917824">
     <path class="fil13" d="M4402.03 34909.66c12.94,-275.92 120.89,-444.75 332.86,-545.15 88.11,-41.74 176,-86.49 268.26,-116.63 203.93,-66.65 413.96,-98.08 621.4,-22.49 129.04,46.91 249.87,116.09 375.35,173.41 284.17,129.68 386.78,499.37 252.57,803.81 -103.75,235.32 -281.53,390.66 -526.76,464.59 -209.97,63.2 -421.72,119.28 -645.28,76.95 -310.32,-58.77 -525.09,-226.58 -611.91,-537.39 -30.63,-109.95 -50.09,-223.13 -66.49,-297.11zm1654.38 72.2l0 0c12.13,-87.84 -38.45,-166.73 -129.25,-221.19 -83.58,-50.04 -168.13,-98.95 -255.16,-142.35 -144.83,-72.15 -295.82,-89.89 -448.9,-27.93 -90,36.45 -179.56,75.33 -265.24,120.84 -239.84,127.26 -299.64,361.92 -126.45,567.64 229.87,272.85 542.02,364.94 884.86,224.69 195.68,-80.02 349.68,-317.17 340.14,-521.69z"/>
    </g>
    <g id="_2383516918080">
     <path class="fil13" d="M39083.65 44031.42c63.03,-12.35 109.68,-21.51 164.03,-32.25 137.29,114.48 177.73,281.31 208.08,444.05 96.79,517.49 186.73,1036.27 270.63,1555.97 49.39,305.31 83.96,613.09 122.13,920.12 34.83,279.42 76.35,558.63 95.17,839.19 19.95,297.49 -104.88,552.7 -297.65,769.68 -201.24,226.63 -727.62,262.49 -949.08,57.27 -173.74,-161.06 -331.4,-478.56 -163.28,-820.04 43.03,-87.57 72.2,-182.15 117.23,-268.59 62.6,-120.41 160.2,-196.98 298.67,-223.88 178.7,-34.73 355.56,-79.16 538.41,-120.57 -29.33,-177.78 -55.97,-348.61 -85.95,-518.73 -57.75,-326.17 -118.63,-651.86 -176,-978.14 -45.02,-256.67 -81.1,-515.01 -131.52,-770.54 -55.59,-282.17 -23.78,-562.41 -10.89,-853.53z"/>
    </g>
   </g>
  </g>
  <polygon class="fil14" points="-0,0 54965.98,0 54965.98,50044.9 -0,50044.9 "/>
 </g>
</svg>
