<?xml version="1.0" encoding="UTF-8"?>
<!DOCTYPE svg PUBLIC "-//W3C//DTD SVG 1.1//EN" "http://www.w3.org/Graphics/SVG/1.1/DTD/svg11.dtd">
<!-- Creator: CorelDRAW 2018 (64 Bit Versão de avaliação) -->
<svg xmlns="http://www.w3.org/2000/svg" xml:space="preserve" width="48.0275mm" height="94.5606mm" version="1.1" style="shape-rendering:geometricPrecision; text-rendering:geometricPrecision; image-rendering:optimizeQuality; fill-rule:evenodd; clip-rule:evenodd"
viewBox="0 0 554.35 1091.44"
 xmlns:xlink="http://www.w3.org/1999/xlink">
 <defs>
  <style type="text/css">
   <![CDATA[
    .fil3 {fill:#F8AE96;fill-rule:nonzero}
    .fil7 {fill:#F58B7E;fill-rule:nonzero}
    .fil4 {fill:#F0595D;fill-rule:nonzero}
    .fil0 {fill:#E2E3E0;fill-rule:nonzero}
    .fil2 {fill:#8FC8ED;fill-rule:nonzero}
    .fil6 {fill:#7CC0E9;fill-rule:nonzero}
    .fil5 {fill:#42ADE2;fill-rule:nonzero}
    .fil1 {fill:#4C466C;fill-rule:nonzero}
   ]]>
  </style>
 </defs>
 <g id="Camada_x0020_1">
  <metadata id="CorelCorpID_0Corel-Layer"/>
  <g id="_2454372774832">
   <path class="fil0" d="M554.35 1049.27c0,23.29 -89.53,42.17 -199.96,42.17 -110.44,0 -199.96,-18.88 -199.96,-42.17 0,-23.29 89.52,-42.17 199.96,-42.17 110.44,0 199.96,18.88 199.96,42.17z"/>
   <path class="fil1" d="M407.14 930.07c0,0 6.3,44.36 13.73,46.74 7.44,2.38 90.62,-27.02 95.85,-36.96 5.23,-9.94 -9.22,-13.88 -29.35,-10.76 -20.12,3.13 -24.66,2.35 -24.66,2.35l-5.95 -15.56 -49.62 14.18z"/>
   <path class="fil2" d="M489.21 928.85l3.7 14.99 -76.89 25.74c1.52,3.92 3.16,6.68 4.87,7.22 7.44,2.38 90.62,-27.02 95.85,-36.96 5.07,-9.63 -8.37,-13.61 -27.52,-11z"/>
   <path class="fil1" d="M300.46 975.33c0,0 30.96,32.4 28.23,39.71 -2.72,7.32 -77.29,54.48 -88.33,52.44 -11.04,-2.04 -5.2,-15.84 9.71,-29.71 14.91,-13.88 17.11,-17.93 17.11,-17.93l-8.55 -14.3 41.84 -30.21z"/>
   <path class="fil2" d="M248.73 1039.04l9.49 12.19 67.8 -44.49c2.13,3.61 3.29,6.62 2.66,8.29 -2.73,7.32 -77.29,54.48 -88.34,52.44 -10.71,-1.98 -5.51,-15 8.38,-28.43z"/>
   <path class="fil3" d="M525.87 77.53l-0.98 -0.2c3.22,-13.27 8.84,-38.4 5.15,-38.56 -5.01,-0.2 -14.61,35.94 -14.61,35.94l-0.08 0.74 -0.77 -0.15c2.84,-11.36 10.19,-42.27 6.1,-42.44 -5.01,-0.2 -14.61,35.94 -14.61,35.94l-0.5 4.73 -5 -0.99c2.04,-10.89 5.21,-29.98 2.45,-30.22 -3.86,-0.34 -10,28.73 -10,28.73l-9.39 32.08c0,0 -0.62,-16.81 -1.92,-25.89 -1.29,-9.09 -5.74,0.69 -6.51,6.01 -0.77,5.32 0.12,29.33 0.12,29.33l24.33 60.17c0,0 2.23,-4.89 12.92,-27.88 10.69,-22.99 21.62,-65.71 21.62,-65.71 0,0 4.54,-16.54 2.8,-17.11 -2.13,-0.7 -7.21,8 -11.13,15.47z"/>
   <path class="fil3" d="M8 39.53l0.94 0.06c0.22,-12.88 1.06,-37.14 4.46,-36.41 4.62,1 4.79,36.27 4.79,36.27l-0.11 0.69 0.74 0.05c0.11,-11.04 0.74,-40.99 4.52,-40.17 4.61,1.01 4.79,36.27 4.79,36.27l-0.67 4.43 4.8 0.29c0.73,-10.42 2.37,-28.59 4.94,-28.16 3.6,0.61 2.3,28.6 2.3,28.6l0.95 31.5c0,0 4.56,-15.19 7.9,-23.17 3.34,-7.98 5.08,2 4.51,7.03 -0.56,5.03 -7.07,26.73 -7.07,26.73l-36.5 49.12c0,0 -0.87,-4.99 -5.16,-28.51 -4.3,-23.52 -4.12,-65.09 -4.12,-65.09 0,0 -0.21,-16.17 1.51,-16.28 2.1,-0.13 4.68,9.01 6.48,16.76z"/>
   <path class="fil3" d="M208.69 298.9c0,0 -53.31,-11.36 -81.89,-33.4 -34.21,-26.38 -58.63,-79.01 -68.24,-111.4 -9.61,-32.4 -12.78,-70.56 -12.78,-70.56l-41.66 20.61c0,0 9.72,75.61 31.34,125.15 19.35,44.36 48.33,85.7 90.88,111.31 42.55,25.62 50.44,28.46 50.44,28.46 0,0 -1.52,205.14 -1.86,207.85 -0.35,2.7 -25.02,145.3 -10.97,236.02 14.06,90.72 90.52,202.26 90.52,202.26l53.78 -33.45c0,0 -64.38,-120.07 -75.56,-190.26 -11.18,-70.18 11.65,-162.59 11.65,-162.59l25.18 -10.53c0,0 81.9,69.15 103.95,126.06 22.05,56.9 20.38,198.78 20.38,198.78l77.56 -25.82c0,0 -13.64,-115.41 -31.9,-194.76 -18.26,-79.34 -124.67,-171.8 -124.67,-171.8l-15.38 -173.39c0,0 58.69,-14.49 106.62,-52.35 47.93,-37.86 87.67,-126.27 98.35,-152.41 10.68,-26.13 14.91,-44.84 14.91,-44.84l-43.37 -19.31c0,0 -12.55,47.9 -38.74,94.96 -26.19,47.06 -67.58,83.93 -116.12,97.88 -48.54,13.95 -112.43,-2.48 -112.43,-2.48z"/>
   <path class="fil4" d="M269.54 618.36c0,0 81.9,69.15 103.95,126.06 22.05,56.9 20.38,198.78 20.38,198.78l77.56 -25.82c0,0 -13.64,-115.41 -31.9,-194.76 -18.26,-79.34 -124.67,-171.8 -124.67,-171.8l-3.42 -38.53c-13.76,5.34 -32.21,10.2 -56.5,12.52 -38.96,3.73 -64.46,1.14 -79.38,-1.85 -0.27,30.23 -0.51,53.05 -0.63,53.94 -0.35,2.7 -25.02,145.3 -10.97,236.02 14.06,90.72 90.52,202.26 90.52,202.26l53.78 -33.45c0,0 -64.38,-120.07 -75.56,-190.26 -11.18,-70.18 11.65,-162.59 11.65,-162.59l25.18 -10.53z"/>
   <path class="fil5" d="M312.55 524.81l-13.08 -147.37c0,0 58.69,-14.49 106.62,-52.35 12.19,-9.63 23.85,-22.54 34.64,-36.85l-34.87 -41.16c-23.56,25.69 -52.56,45.06 -84.74,54.31 -48.54,13.95 -112.43,-2.48 -112.43,-2.48 0,0 -53.31,-11.36 -81.89,-33.41 -25.76,-19.87 -45.97,-54.61 -58.48,-84.4l-41.85 25.34c1.83,6.84 3.45,7.11 5.4,13 15.2,45.94 51.94,95.57 94.49,121.18 42.55,25.62 50.44,28.46 50.44,28.46 0,0 -0.79,107.27 -1.36,167.7 20.76,7.31 67.8,16.5 137.12,-11.95z"/>
   <path class="fil1" d="M218.99 361.64c0,0 -13.01,15.75 -35.4,33.05 -22.38,17.3 -130.93,70.33 -130.93,70.33l-14.75 29.28 40.37 -0.33c0,0 128.63,-95.37 147.91,-131.4l-7.22 -0.92z"/>
   <polygon class="fil1" points="211.87,331.39 217.68,350.47 216.7,372.35 237.05,356.62 255.48,341.56 244.19,308.03 "/>
   <path class="fil6" d="M225.75 287.33c0,0 -10.04,-0.37 -17.06,11.57 -7.03,11.93 -14.61,56.79 -14.61,56.79 0,0 23.75,-20.79 36.37,-19.17 12.63,1.62 36.68,28.53 36.68,28.53 0,0 9.94,-41.81 6.81,-53.21 -3.13,-11.4 -32.84,-29.87 -48.2,-24.51z"/>
   <path class="fil7" d="M224.13 264.21c0,0 -7.44,36.63 -7.6,52.2 -0.16,15.56 10.6,38.94 10.6,38.94l30.34 -36.45 11.95 -36.06 -45.28 -18.63z"/>
   <path class="fil1" d="M349.96 219.36c-5.71,44.58 -47.08,76.02 -92.41,70.21 -45.33,-5.81 -77.45,-46.65 -71.74,-91.23 5.7,-44.58 47.08,-76.01 92.41,-70.21 45.33,5.81 77.44,46.65 71.74,91.23z"/>
   <path class="fil3" d="M222.99 230.15c0,0 -3.54,-22.46 -13.27,-10.87 -9.74,11.59 -0.76,27.4 5.55,28.21 6.31,0.81 7.72,-17.34 7.72,-17.34z"/>
   <path class="fil3" d="M294.24 239.27c0,0 11.98,-7.63 14.2,3.65 2.22,11.28 -6.26,20.28 -12.02,22.29 -5.76,2.01 -8.67,-3.86 -8.67,-3.86l6.49 -22.08z"/>
   <path class="fil3" d="M233.05 187.44c0,0 -22.61,54.85 -15.58,78.67 7.03,23.82 27.88,32.9 51.02,23.95 23.15,-8.95 42.09,-85.36 42.09,-85.36 0,0 -21.28,-48.56 -77.54,-17.26z"/>
   <path class="fil6" d="M68.32 181.09l-41.85 25.34c1.83,6.84 3.45,7.11 5.4,13 1.09,3.27 2.3,6.56 3.6,9.87l46.86 -19.28c-5.39,-9.72 -10.08,-19.57 -14.01,-28.92z"/>
   <path class="fil6" d="M382.83 268.6l39.38 41.62c6.4,-6.7 12.59,-14.12 18.52,-21.98l-34.87 -41.16c-7.18,7.83 -14.92,14.98 -23.04,21.52z"/>
  </g>
 </g>
</svg>
