<?xml version="1.0" encoding="UTF-8"?>
<!DOCTYPE svg PUBLIC "-//W3C//DTD SVG 1.1//EN" "http://www.w3.org/Graphics/SVG/1.1/DTD/svg11.dtd">
<!-- Creator: CorelDRAW 2018 (64 Bit Versão de avaliação) -->
<svg xmlns="http://www.w3.org/2000/svg" xml:space="preserve" width="44.2429mm" height="93.4265mm" version="1.1" style="shape-rendering:geometricPrecision; text-rendering:geometricPrecision; image-rendering:optimizeQuality; fill-rule:evenodd; clip-rule:evenodd"
viewBox="0 0 368.6 778.36"
 xmlns:xlink="http://www.w3.org/1999/xlink">
 <defs>
  <style type="text/css">
   <![CDATA[
    .str0 {stroke:#4C466C;stroke-width:1.47;stroke-miterlimit:10}
    .fil7 {fill:none;fill-rule:nonzero}
    .fil2 {fill:#F8AE96;fill-rule:nonzero}
    .fil5 {fill:#F58B7E;fill-rule:nonzero}
    .fil3 {fill:#F0595D;fill-rule:nonzero}
    .fil6 {fill:#F3CC82;fill-rule:nonzero}
    .fil1 {fill:#F0B646;fill-rule:nonzero}
    .fil0 {fill:#E2E3E0;fill-rule:nonzero}
    .fil8 {fill:#8FC8ED;fill-rule:nonzero}
    .fil4 {fill:#42ADE2;fill-rule:nonzero}
   ]]>
  </style>
 </defs>
 <g id="Camada_x0020_1">
  <metadata id="CorelCorpID_0Corel-Layer"/>
  <g id="_2419913906240">
   <path class="fil0" d="M306.29 747.92c0,16.81 -64.62,30.44 -144.34,30.44 -79.72,0 -144.34,-13.63 -144.34,-30.44 0,-16.81 64.62,-30.44 144.34,-30.44 79.71,0 144.34,13.63 144.34,30.44z"/>
   <path class="fil1" d="M136.57 217.04l45.01 127.26c0,0 66.73,15.52 123.38,-24.83 56.65,-40.35 63.63,-129.59 63.63,-129.59 0,0 -86.91,13.19 -152.09,-15.52 0,0 -51.22,-17.07 -64.41,-18.63 -13.19,-1.55 -21.73,13.19 -22.5,30.26 -0.78,17.07 6.98,31.04 6.98,31.04z"/>
   <path class="fil2" d="M198.65 695.83c0,0 -17.85,39.58 -13.19,44.23 4.66,4.66 85.36,22.5 90.79,20.18 5.43,-2.33 -6.98,-12.42 -15.52,-17.07 -8.54,-4.66 -40.35,-20.18 -40.35,-20.18l6.21 -15.52 -27.94 -11.64z"/>
   <path class="fil3" d="M260.73 743.16c-4.81,-2.62 -17.03,-8.71 -26.78,-13.51l-4.26 11.19 -41.3 -19.24c-2.93,8.61 -4.86,16.53 -2.93,18.46 4.66,4.66 85.36,22.5 90.79,20.18 5.43,-2.33 -6.98,-12.42 -15.52,-17.07z"/>
   <path class="fil2" d="M88.46 431.21c0,0 -16.29,-36.47 -20.18,-40.35 -3.88,-3.88 -9.31,0.78 -14.74,8.54 -5.43,7.76 -31.82,53.54 -30.26,58.2 1.55,4.66 38.02,-31.82 38.02,-31.82l16.3 24.83 10.86 -19.4z"/>
   <path class="fil3" d="M47.33 420.35l25.49 -22.02c-1.96,-3.73 -3.61,-6.54 -4.54,-7.47 -3.88,-3.88 -9.31,0.78 -14.74,8.54 -5.43,7.76 -31.82,53.54 -30.26,58.2 1.15,3.44 21.4,-15.61 31.87,-25.76l-7.81 -11.48z"/>
   <path class="fil4" d="M169.94 259.72l-12.42 2.33c0,0 -14.74,3.88 -38.8,-8.54 -24.06,-12.41 -45.79,-35.7 -65.19,-63.63 -19.4,-27.94 -20.95,-49.66 -20.95,-49.66 0,0 5.43,-6.21 6.98,-13.97 1.55,-7.76 8.54,-24.06 3.11,-24.06 -5.43,0 -9.31,11.64 -9.31,11.64 0,0 -5.43,-31.04 -9.31,-29.49 -3.88,1.55 -0.78,15.52 -0.78,15.52 0,0 -6.98,-21.73 -9.31,-17.85 -2.33,3.88 2.33,17.07 2.33,17.07 0,0 -15.52,-27.16 -13.19,-17.07 2.33,10.09 6.98,20.95 6.98,20.95 0,0 -10.09,-11.64 -10.09,-7.76 0,3.88 4.66,18.62 8.54,27.16 3.88,8.54 6.98,21.73 13.19,46.56 6.21,24.83 48.11,88.47 76.82,115.63 28.71,27.16 79.15,31.04 79.15,31.04 0,0 26.38,41.9 19.4,110.19 -6.98,68.29 -17.07,93.9 -27.16,94.67 -10.09,0.78 -48.89,-48.11 -59.75,-66.74 -10.86,-18.62 -18.62,-38.8 -18.62,-38.8l-31.04 51.22c0,0 46.56,76.05 90.02,101.66 43.46,25.61 52.77,22.5 66.74,0 13.97,-22.5 33.37,-117.95 33.37,-117.95 0,0 11.64,83.03 -8.53,145.11 -20.18,62.08 -69.07,101.66 -69.07,101.66l60.53 23.28c0,0 53.55,-48.12 68.29,-149.77 14.74,-101.66 -17.85,-247.55 -24.83,-267.72 -6.98,-20.17 -9.31,-34.14 -9.31,-34.14 0,0 20.17,-23.28 20.95,-78.38 0.78,-55.1 -20.95,-113.3 -29.49,-128.04 -8.54,-14.75 -16.29,-25.61 -16.29,-25.61 0,0 -24.83,-34.92 -25.61,-31.82 -0.78,3.1 2.33,10.86 2.33,10.86 0,0 -16.3,-18.62 -17.07,-14.74 -0.78,3.88 7.76,16.29 7.76,16.29 0,0 -17.85,-16.29 -17.85,-12.41 0,3.88 9.31,15.52 9.31,15.52 0,0 -19.4,-6.99 -15.52,-1.55 3.88,5.43 18.62,18.62 18.62,18.62 0,0 -14.74,-2.33 -15.52,0.78 -0.78,3.11 13.19,6.99 15.52,6.99 2.33,0 22.5,8.53 22.5,8.53 0,0 26.38,48.89 28.71,96.23 2.33,47.34 -13.97,72.17 -37.25,84.58l-48.89 25.61z"/>
   <path class="fil5" d="M170.72 232.56l10.09 20.95 -10.86 6.21 17.07 28.71 47.34 -17.07 -15.52 -37.25 -12.42 4.66 -15.52 -33.37c0,0 -2.33,23.28 -20.18,27.16z"/>
   <path class="fil2" d="M187.79 185.22c0,0 -10.86,-27.94 -25.61,-35.7 -14.74,-7.76 -34.14,-4.66 -37.25,17.85 -3.1,22.51 13.87,49.55 25.61,58.2 14.74,10.86 34.92,12.41 41.13,-2.33 6.21,-14.74 -3.88,-38.02 -3.88,-38.02z"/>
   <path class="fil6" d="M130.37 153.41c0,0 11.64,10.09 31.82,15.52 20.18,5.43 54.32,5.43 54.32,5.43 0,0 -29.49,-24.06 -48.11,-28.71 -18.62,-4.66 -38.8,-3.1 -38.02,7.76z"/>
   <path class="fil6" d="M131.92 147.97c0,0 -13.97,3.1 -13.97,21.73 0,18.63 18.62,47.34 18.62,47.34 0,0 -2.33,-55.1 -4.66,-69.06z"/>
   <path class="fil3" d="M157.53 262.05c0,0 -14.74,3.88 -38.8,-8.54 -24.05,-12.41 -45.78,-35.7 -65.18,-63.63 -19.4,-27.94 -20.95,-49.66 -20.95,-49.66 0,0 5.43,-6.21 6.98,-13.97 1.55,-7.76 8.54,-24.06 3.11,-24.06 -5.43,0 -9.31,11.64 -9.31,11.64 0,0 -5.43,-31.04 -9.31,-29.49 -3.88,1.55 -0.78,15.52 -0.78,15.52 0,0 -6.98,-21.73 -9.31,-17.85 -2.33,3.88 2.33,17.07 2.33,17.07 0,0 -15.52,-27.16 -13.19,-17.07 2.33,10.09 6.98,20.95 6.98,20.95 0,0 -10.09,-11.64 -10.09,-7.76 0,3.88 4.66,18.62 8.54,27.16 3.88,8.54 6.98,21.73 13.19,46.56 6.21,24.83 48.11,88.47 76.82,115.63 28.71,27.16 79.15,31.04 79.15,31.04l-19.01 -53.76 -1.16 0.22z"/>
   <path class="fil3" d="M242.89 36.23c0,0 -24.83,-34.92 -25.61,-31.82 -0.78,3.1 2.33,10.86 2.33,10.86 0,0 -16.3,-18.62 -17.07,-14.74 -0.78,3.88 7.76,16.29 7.76,16.29 0,0 -17.85,-16.29 -17.85,-12.41 0,3.88 9.31,15.52 9.31,15.52 0,0 -19.4,-6.99 -15.52,-1.55 3.88,5.43 18.62,18.62 18.62,18.62 0,0 -14.74,-2.33 -15.52,0.78 -0.78,3.11 13.19,6.99 15.52,6.99 2.33,0 22.5,8.53 22.5,8.53 0,0 26.38,48.89 28.71,96.23 1.94,39.37 -9.03,63.14 -26.17,77.18 7.06,12.02 21.12,32.94 37.81,41.55 0,0 20.17,-23.28 20.95,-78.38 0.78,-55.1 -20.95,-113.3 -29.49,-128.04 -8.54,-14.75 -16.29,-25.61 -16.29,-25.61z"/>
   <path class="fil7 str0" d="M197.88 392.41c0,0 56.65,-1.55 94.67,-17.07"/>
   <polygon class="fil8" points="200.21,314.04 207.97,346.63 245.99,363.7 266.17,331.11 253.75,297.74 "/>
   <path class="fil7 str0" d="M211.48 390.52c0,0 -4.8,120.04 -21.61,153.65 -16.8,33.61 -110.43,-108.03 -110.43,-108.03"/>
   <path class="fil2" d="M96.17 282.24l8.69 -37.24c-18.61,-13.21 -35.72,-32.65 -51.32,-55.12 -19.4,-27.94 -20.95,-49.66 -20.95,-49.66 0,0 5.43,-6.21 6.98,-13.97 1.55,-7.76 8.54,-24.06 3.11,-24.06 -5.43,0 -9.31,11.64 -9.31,11.64 0,0 -5.43,-31.04 -9.31,-29.49 -3.88,1.55 -0.78,15.52 -0.78,15.52 0,0 -6.98,-21.73 -9.31,-17.85 -2.33,3.88 2.33,17.07 2.33,17.07 0,0 -15.52,-27.16 -13.19,-17.07 2.33,10.09 6.98,20.95 6.98,20.95 0,0 -10.09,-11.64 -10.09,-7.76 0,3.88 4.66,18.62 8.54,27.16 3.88,8.54 6.98,21.73 13.19,46.56 6.04,24.16 45.85,85.02 74.44,113.31z"/>
   <path class="fil2" d="M259.18 61.84c-8.54,-14.75 -16.29,-25.61 -16.29,-25.61 0,0 -24.83,-34.92 -25.61,-31.82 -0.78,3.1 2.33,10.86 2.33,10.86 0,0 -16.3,-18.62 -17.07,-14.74 -0.78,3.88 7.76,16.29 7.76,16.29 0,0 -17.85,-16.29 -17.85,-12.41 0,3.88 9.31,15.52 9.31,15.52 0,0 -19.4,-6.99 -15.52,-1.55 3.88,5.43 18.62,18.62 18.62,18.62 0,0 -14.74,-2.33 -15.52,0.78 -0.78,3.11 13.19,6.99 15.52,6.99 2.33,0 22.5,8.53 22.5,8.53 0,0 26.38,48.89 28.71,96.23 0.78,15.77 -0.55,29 -3.48,40.15l35.86 7.1c0.1,-2.25 0.18,-4.54 0.22,-6.9 0.78,-55.1 -20.95,-113.3 -29.49,-128.04z"/>
   <path class="fil7 str0" d="M250.65 449.84c0,0 24.55,82.69 13.45,141.2 -11.1,58.51 -63.55,115 -63.55,115"/>
  </g>
 </g>
</svg>
