<?xml version="1.0" encoding="UTF-8"?>
<!DOCTYPE svg PUBLIC "-//W3C//DTD SVG 1.1//EN" "http://www.w3.org/Graphics/SVG/1.1/DTD/svg11.dtd">
<!-- Creator: CorelDRAW 2018 (64 Bit Versão de avaliação) -->
<svg xmlns="http://www.w3.org/2000/svg" xml:space="preserve" width="71.6978mm" height="102.725mm" version="1.1" style="shape-rendering:geometricPrecision; text-rendering:geometricPrecision; image-rendering:optimizeQuality; fill-rule:evenodd; clip-rule:evenodd"
viewBox="0 0 2038.88 2921.22"
 xmlns:xlink="http://www.w3.org/1999/xlink">
 <defs>
  <style type="text/css">
   <![CDATA[
    .str0 {stroke:#4C466C;stroke-width:5.02;stroke-miterlimit:10}
    .fil11 {fill:none;fill-rule:nonzero}
    .fil0 {fill:white}
    .fil4 {fill:#F8AE96;fill-rule:nonzero}
    .fil8 {fill:#F58B7E;fill-rule:nonzero}
    .fil5 {fill:#F0595D;fill-rule:nonzero}
    .fil12 {fill:#F0B646;fill-rule:nonzero}
    .fil10 {fill:#CF8F77;fill-rule:nonzero}
    .fil1 {fill:#E2E3E0;fill-rule:nonzero}
    .fil9 {fill:#B47B63;fill-rule:nonzero}
    .fil3 {fill:#8FC8ED;fill-rule:nonzero}
    .fil7 {fill:#7CC0E9;fill-rule:nonzero}
    .fil6 {fill:#42ADE2;fill-rule:nonzero}
    .fil2 {fill:#4C466C;fill-rule:nonzero}
   ]]>
  </style>
 </defs>
 <g id="Camada_x0020_1">
  <metadata id="CorelCorpID_0Corel-Layer"/>
  <g id="_2383516989248">
   <path class="fil0" d="M410.68 489.77c5.14,-34.46 -0.09,-68.81 4.92,-104.03 -4.14,0.99 -7.05,1.58 -9.9,2.38 -22.55,6.3 -45.12,12.57 -67.64,19.01 -13.6,3.89 -27.09,8.16 -40.69,12.08 -3.8,1.09 -5.41,3.27 -5.66,7.14 -0.97,14.63 -2,29.26 -3.24,43.88 -1.13,13.31 -2.16,26.66 -4,39.88 -1.42,10.15 -1.54,20.55 -5.48,30.31 -3.53,8.73 -7.81,16.72 -16.14,21.92 -11.13,6.94 -28.1,4.35 -37.56,-3.39 -6.86,-5.61 -10.28,-12.27 -11.47,-20.8 -1.38,-9.9 2.45,-18.96 11.15,-24.08 8.87,-5.22 17.54,-11.03 28.42,-11.16 3.82,-0.05 7.63,-0.01 12.35,-0.01 0.28,-4.22 0.65,-8.74 0.88,-13.27 1.07,-21.61 1.94,-43.24 3.22,-64.84 0.76,-12.84 2.15,-25.65 3.27,-38.47 1.19,-13.69 4.78,-26.8 9.04,-39.52 18.48,-6.88 36.5,-13.75 54.63,-20.3 23.54,-8.49 47.68,-14.85 72.3,-19.36 8.18,-1.5 16.35,-2.01 25.41,0.65 0.09,2.07 0.52,4.52 0.22,6.87 -1.08,8.67 -2.77,17.27 -3.56,25.96 -1.06,11.5 -1.7,23.06 -2.12,34.61 -0.47,12.85 -0.62,25.71 -0.63,38.57 -0,4.35 1.21,8.7 1.19,13.05 -0.05,7.68 -0.88,15.36 -0.91,23.04 -0.04,9.22 0.91,18.46 0.52,27.66 -0.44,10.52 -1.81,21.01 -2.89,31.5 -0.79,7.67 -1.85,15.32 -2.64,22.99 -0.36,3.53 -1.18,6.4 -4.85,8.05 -1.71,0.77 -3.09,2.61 -4.27,4.22 -6.54,8.99 -15.37,14.22 -26.19,16.25 -1.25,0.23 -2.59,0.38 -3.83,0.16 -7.77,-1.32 -14.67,-4.68 -20.96,-9.33 -8.44,-6.23 -8.5,-14.98 -6.19,-23.76 2.09,-7.95 7.21,-14.29 12.06,-21.01 8.9,-12.33 22.02,-12.69 34.47,-15.71 2.2,-0.53 4.47,-0.76 6.77,-1.14zm-116.4 -106.22l0 0c0,7.17 0,14.72 0,22.71 40.9,-11.16 79.91,-28.34 122.43,-35.1 0.51,-6.81 0.98,-13.07 1.56,-20.69 -42.01,11.21 -82.57,22.03 -123.99,33.08z"/>
  </g>
  <g id="_2383516988128">
   <path class="fil0" d="M894.18 73.61c-1.03,16.43 -2.02,32.33 -3.03,48.22 -1.5,23.49 -3.28,46.96 -4.41,70.46 -0.69,14.22 -0.36,28.49 -0.55,42.74 -0.1,6.72 -0.35,6.93 -8.63,9.47 -0.88,-2.2 -2.35,-4.42 -2.63,-6.79 -1.38,-11.51 -2.4,-23.07 -3.61,-34.61 -3.09,-29.31 -2.73,-58.69 -1.5,-88.05 0.78,-18.59 2.44,-37.15 3.69,-55.72 0.17,-2.61 0.34,-5.23 0.27,-7.84 -0.45,-17.91 12.03,-32.9 29.98,-36 12.03,-2.08 23.75,-0.6 35.24,3.14 6.54,2.13 13.17,3.68 18.86,8.36 4.47,3.67 8.24,7.39 9.77,12.89 1.85,6.67 3.76,13.39 4.79,20.22 1.92,12.74 -5.96,21.06 -15.86,25.5 -11.63,5.22 -24.67,7.51 -37.2,1.45 -7.97,-3.85 -15.64,-8.33 -25.15,-13.45z"/>
  </g>
  <g id="_2383516988800">
   <path class="fil0" d="M576.59 252c0.18,-7.26 0.66,-13.91 0.44,-20.54 -0.57,-17.06 0.51,-33.97 3.31,-50.8 0.16,-1.02 0.4,-2.03 0.48,-3.05 1.13,-14.57 2.16,-29.14 3.41,-43.69 0.44,-5.12 1.41,-10.2 2.16,-15.3 2.6,-17.82 5.28,-35.62 7.79,-53.46 0.75,-5.34 0.97,-10.76 1.52,-16.14 0.6,-5.88 4.4,-9.4 10.35,-10.19 13.32,-1.78 24.07,3.98 33.94,11.76 7.58,5.97 13.5,13.54 16.81,22.65 1.73,4.74 2.04,9.98 3.15,14.96 1.71,7.7 3.58,15.37 5.36,23.06 0.86,3.75 1.22,7.7 2.59,11.23 3.29,8.48 10.01,13.46 18.32,16.52 2.14,0.78 4.32,1.48 6.58,2.26 -0.93,3.17 -3.19,3.43 -5.54,3.44 -13.5,0.13 -23.75,-5.8 -30.97,-17.03 -9.5,-14.79 -16.62,-30.82 -22.77,-47.2 -4.11,-10.95 -10.53,-19.78 -20.4,-28.03 -0.55,3.18 -1.05,5.27 -1.25,7.39 -1.3,14.04 -2.52,28.08 -3.8,42.13 -1.79,19.67 -3.7,39.32 -5.4,59 -1.56,18.11 -2.64,36.26 -4.41,54.35 -2.12,21.76 -1.19,43.61 -2.43,65.38 -0.52,9.19 -1.44,18.61 -4.08,27.36 -4.31,14.27 -13.47,24.61 -28.89,27.94 -2.77,0.59 -5.5,1.4 -8.28,1.95 -12.2,2.45 -22.53,-1.34 -30.56,-10.45 -9.25,-10.51 -12.42,-22.92 -9,-36.68 1.3,-5.23 2.49,-10.58 4.67,-15.47 1.24,-2.77 4.08,-5.12 6.71,-6.92 4,-2.74 8.84,-4.33 12.61,-7.31 9.9,-7.83 20.84,-10.85 33.25,-8.93 0.99,0.15 2.04,-0.07 4.33,-0.17z"/>
  </g>
  <g id="_2383516988864">
   <path class="fil0" d="M1945.32 652.02c-8.48,-28.87 -14.58,-56.86 -25.52,-83.4 -2.01,-4.87 -3.75,-9.9 -5.05,-15 -6.53,-25.53 -13.61,-50.95 -15.38,-77.43 -0.18,-2.66 -1.5,-5.24 -2.38,-8.18 4.52,-8.26 5,-7.63 13.83,-4.74 9.25,3.03 14.53,10.77 22.1,15.71 13.34,8.71 27.39,15.78 42.4,20.88 13.67,4.65 27.24,9.52 39.84,16.62 11.06,6.23 18.7,14.96 21.32,28.04 2.04,10.19 3.87,19.93 0.73,30.32 -3.15,10.41 -9.01,18.35 -18.08,23.97 -1.54,0.95 -4.53,1.36 -5.75,0.49 -1.35,-0.97 -2.32,-3.91 -1.91,-5.62 1.99,-8.3 1.63,-16.48 0.05,-24.74 -3.88,-20.3 -15.18,-34.77 -33.9,-43.5 -11.06,-5.16 -22.09,-10.39 -33.17,-15.49 -1.87,-0.86 -3.97,-1.24 -7.16,-2.2 0.55,3.34 0.65,5.49 1.28,7.48 3.85,12.11 7.87,24.16 11.74,36.27 6.52,20.38 11.87,41.03 15.41,62.17 2.11,12.57 5.45,24.96 6.99,37.58 1.31,10.66 1.64,21.59 0.9,32.29 -0.61,8.98 -0.63,18.38 -5.34,26.68 -2.87,5.04 -5.59,10.17 -8.62,15.12 -0.81,1.32 -2.36,2.54 -3.84,3.04 -10.82,3.7 -21.78,6.56 -33.41,4.48 -14.59,-2.62 -29.46,-18.74 -29.16,-33.43 0.13,-6.19 0.57,-13.34 5.36,-18.46 6.32,-6.75 10.61,-15.53 19.43,-19.83 1.47,-0.72 2.96,-1.47 4.52,-1.97 7.29,-2.33 14.6,-4.59 22.78,-7.13z"/>
  </g>
  <g id="_2383516989952">
   <path class="fil0" d="M841.32 432.18c0.68,-14.55 6.38,-23.46 17.55,-28.75 4.65,-2.2 9.28,-4.56 14.15,-6.15 10.75,-3.51 21.83,-5.17 32.77,-1.19 6.81,2.47 13.18,6.12 19.8,9.15 14.99,6.84 20.4,26.34 13.32,42.39 -5.47,12.41 -14.85,20.6 -27.78,24.5 -11.07,3.33 -22.24,6.29 -34.03,4.06 -16.37,-3.1 -27.69,-11.95 -32.27,-28.34 -1.62,-5.8 -2.64,-11.77 -3.51,-15.67zm87.25 3.81l0 0c0.64,-4.63 -2.03,-8.79 -6.82,-11.66 -4.41,-2.64 -8.87,-5.22 -13.46,-7.51 -7.64,-3.8 -15.6,-4.74 -23.67,-1.47 -4.75,1.92 -9.47,3.97 -13.99,6.37 -12.65,6.71 -15.8,19.09 -6.67,29.94 12.12,14.39 28.59,19.25 46.67,11.85 10.32,-4.22 18.44,-16.73 17.94,-27.51z"/>
  </g>
  <g id="_2383516991296">
   <path class="fil0" d="M893.57 1355.79c0.68,-14.55 6.38,-23.46 17.55,-28.75 4.65,-2.2 9.28,-4.56 14.15,-6.15 10.75,-3.51 21.83,-5.17 32.77,-1.19 6.81,2.47 13.18,6.12 19.8,9.15 14.99,6.84 20.4,26.34 13.32,42.39 -5.47,12.41 -14.85,20.6 -27.78,24.5 -11.07,3.33 -22.24,6.29 -34.03,4.06 -16.37,-3.1 -27.69,-11.95 -32.27,-28.34 -1.62,-5.8 -2.64,-11.77 -3.51,-15.67zm87.25 3.81l0 0c0.64,-4.63 -2.03,-8.79 -6.82,-11.66 -4.41,-2.64 -8.87,-5.22 -13.46,-7.51 -7.64,-3.8 -15.6,-4.74 -23.67,-1.47 -4.75,1.92 -9.47,3.97 -13.99,6.37 -12.65,6.71 -15.8,19.09 -6.67,29.94 12.12,14.39 28.59,19.25 46.67,11.85 10.32,-4.22 18.44,-16.73 17.94,-27.51z"/>
  </g>
  <g id="_2383516989920">
   <path class="fil0" d="M1551.81 243.16c5.14,-34.46 -0.09,-68.81 4.92,-104.03 -4.14,0.99 -7.05,1.58 -9.9,2.38 -22.55,6.3 -45.12,12.57 -67.64,19.01 -13.6,3.89 -27.09,8.16 -40.69,12.08 -3.8,1.09 -5.41,3.27 -5.66,7.14 -0.97,14.63 -2,29.26 -3.24,43.88 -1.13,13.31 -2.16,26.66 -4,39.88 -1.42,10.15 -1.54,20.55 -5.48,30.31 -3.53,8.73 -7.81,16.72 -16.14,21.92 -11.13,6.94 -28.1,4.35 -37.56,-3.39 -6.86,-5.61 -10.28,-12.27 -11.47,-20.8 -1.38,-9.9 2.45,-18.96 11.15,-24.08 8.87,-5.22 17.54,-11.03 28.42,-11.16 3.82,-0.05 7.63,-0.01 12.35,-0.01 0.28,-4.22 0.65,-8.74 0.88,-13.27 1.07,-21.61 1.94,-43.24 3.22,-64.84 0.76,-12.84 2.15,-25.65 3.27,-38.47 1.19,-13.69 4.78,-26.8 9.04,-39.52 18.48,-6.88 36.5,-13.75 54.63,-20.3 23.54,-8.49 47.68,-14.85 72.3,-19.36 8.18,-1.5 16.35,-2.01 25.41,0.65 0.09,2.07 0.52,4.52 0.22,6.87 -1.08,8.67 -2.77,17.27 -3.56,25.96 -1.06,11.5 -1.7,23.06 -2.12,34.61 -0.47,12.85 -0.62,25.71 -0.63,38.57 -0,4.35 1.21,8.7 1.19,13.05 -0.05,7.68 -0.88,15.36 -0.91,23.04 -0.04,9.22 0.91,18.46 0.52,27.66 -0.44,10.52 -1.81,21.01 -2.89,31.5 -0.79,7.67 -1.85,15.32 -2.64,22.99 -0.36,3.53 -1.18,6.4 -4.85,8.05 -1.71,0.77 -3.09,2.61 -4.27,4.22 -6.54,8.99 -15.37,14.22 -26.19,16.25 -1.25,0.23 -2.59,0.38 -3.83,0.16 -7.77,-1.32 -14.67,-4.68 -20.96,-9.33 -8.44,-6.23 -8.5,-14.98 -6.19,-23.76 2.09,-7.95 7.21,-14.29 12.06,-21.01 8.9,-12.33 22.02,-12.69 34.47,-15.71 2.2,-0.53 4.47,-0.76 6.77,-1.14zm-116.4 -106.22l0 0c0,7.17 0,14.72 0,22.71 40.9,-11.16 79.91,-28.34 122.43,-35.1 0.51,-6.81 0.98,-13.07 1.56,-20.69 -42.01,11.21 -82.57,22.03 -123.99,33.08z"/>
  </g>
  <g id="_2383516993536">
   <path class="fil0" d="M252.71 207.9c-1.81,-6.75 -3.18,-13.03 -5.18,-19.09 -5.17,-15.6 -8.77,-31.52 -10.77,-47.82 -0.12,-0.99 -0.18,-1.99 -0.39,-2.95 -2.91,-13.76 -5.93,-27.5 -8.73,-41.29 -0.99,-4.85 -1.47,-9.8 -2.17,-14.71 -2.44,-17.16 -4.82,-34.34 -7.35,-51.49 -0.77,-5.14 -2.03,-10.2 -3,-15.32 -1.05,-5.6 1.51,-9.88 6.78,-12.23 11.82,-5.27 23.31,-2.88 34.55,1.63 8.63,3.46 16.15,8.83 21.69,16.35 2.88,3.91 4.6,8.66 6.98,12.96 3.68,6.65 7.49,13.22 11.22,19.84 1.82,3.23 3.22,6.77 5.45,9.67 5.34,6.94 12.91,9.7 21.41,10.28 2.19,0.14 4.39,0.2 6.69,0.3 0.01,3.18 -2.02,4.03 -4.18,4.69 -12.44,3.79 -23.52,1.11 -33.24,-7.31 -12.8,-11.08 -23.74,-23.94 -33.87,-37.4 -6.78,-8.99 -15.11,-15.4 -26.47,-20.34 0.36,3.09 0.47,5.15 0.86,7.16 2.62,13.32 5.32,26.63 7.95,39.94 3.7,18.65 7.28,37.33 11.07,55.96 3.49,17.15 7.42,34.21 10.72,51.39 3.96,20.68 10.77,40.6 15.55,61.05 2.01,8.63 3.73,17.58 3.68,26.38 -0.1,14.35 -5.74,26.4 -19.09,33.67 -2.4,1.3 -4.69,2.79 -7.11,4.06 -10.6,5.58 -21.18,4.9 -31.07,-1.34 -11.4,-7.19 -17.7,-17.79 -18.3,-31.43 -0.22,-5.18 -0.57,-10.45 0.11,-15.56 0.39,-2.9 2.38,-5.84 4.31,-8.22 2.95,-3.62 6.99,-6.4 9.66,-10.19 7.01,-9.92 16.3,-15.69 28.28,-17.3 0.96,-0.13 1.86,-0.61 3.96,-1.33z"/>
  </g>
  <g id="_2383516993664">
   <path class="fil0" d="M1596.09 1812.14c-0.45,19.23 -1.51,38.15 -1.17,57.04 0.36,19.93 2.18,39.82 3.1,59.75 0.44,9.72 0.18,19.48 0.44,29.21 0.07,2.45 0.94,4.88 1.7,8.58 38.24,-4.09 76.12,-8.14 115.28,-12.34 0,-5.25 -0.14,-10.17 0.03,-15.08 0.99,-30.17 1.97,-60.35 3.11,-90.53 0.5,-13.14 0.69,-26.36 2.39,-39.36 0.77,-5.94 3.65,-12.51 7.64,-16.95 15.99,-17.87 38.64,-24.87 61.33,-17.63 13.99,4.46 23.8,20.07 19.15,39.82 -3.42,14.51 -13.07,24.44 -24.86,32.23 -11.17,7.37 -23.04,4.63 -34.51,-0.14 -2.51,-1.05 -4.77,-2.7 -7.62,-4.35 -3.49,6.57 -2.91,12.92 -3.08,19.04 -0.52,18.98 -2,38.04 -0.72,56.9 1.17,17.26 -4.11,34.7 1.86,51.81 1.2,3.43 0.26,7.56 0.69,11.32 0.63,5.55 1.59,11.07 2.57,17.68 -8.21,3.74 -15.48,11.14 -26.94,11.29 -24.7,0.32 -49.39,1.7 -74.07,2.87 -12.95,0.61 -25.88,1.73 -38.81,2.58 -7.81,0.51 -15.28,-0.08 -20.07,-7.56 -0.81,-1.27 -2,-3.28 -1.54,-4.22 3.65,-7.35 -1.19,-14.3 -0.65,-21.46 0.4,-5.37 -3.64,-9.9 -1.54,-16.13 1.81,-5.36 0.02,-11.91 -0.04,-17.93 -0.06,-6.02 0.13,-12.05 0.07,-18.07 -0.33,-34.84 -0.61,-69.69 -1.09,-104.54 -0.2,-14.53 -0.94,-29.05 -1.21,-43.57 -0.05,-2.37 0.45,-5.16 1.72,-7.06 7.3,-10.89 16.56,-19.95 27.46,-27.19 8.72,-5.79 17.78,-10.93 28.18,-13.36 15.24,-3.56 30.59,5.53 36.03,20.2 6.51,17.55 -0.59,30.95 -11.77,43.13 -7.24,7.89 -15.07,15.52 -26.31,17.59 -2.7,0.51 -5.57,0.76 -8.28,0.44 -9.02,-1.09 -18.01,-2.51 -28.45,-4zm120.08 160.77l0 0c-2.94,0 -4.5,-0.07 -6.03,0.02 -12.96,0.74 -25.9,1.67 -38.86,2.24 -17.37,0.78 -34.75,1.33 -52.13,1.92 -4.43,0.15 -8.88,0.09 -13.31,0.09 -3.32,-0.01 -5.77,1.37 -5.8,4.84 -0.04,6.5 0.34,13 0.56,19.86 20.28,-2.41 39.34,-5.27 58.5,-6.79 19.43,-1.54 38.97,-1.76 59.77,-2.62 -1,-7.23 -1.79,-13.01 -2.7,-19.56z"/>
  </g>
  <g id="_2383516992256">
   <path class="fil0" d="M217.78 1734.34c-8.48,-28.87 -14.58,-56.86 -25.52,-83.4 -2.01,-4.87 -3.75,-9.9 -5.05,-15 -6.53,-25.53 -13.61,-50.95 -15.38,-77.43 -0.18,-2.66 -1.5,-5.24 -2.38,-8.18 4.52,-8.26 5,-7.63 13.83,-4.74 9.25,3.03 14.53,10.77 22.1,15.71 13.34,8.71 27.39,15.78 42.4,20.88 13.67,4.65 27.24,9.52 39.84,16.62 11.06,6.23 18.7,14.96 21.32,28.04 2.04,10.19 3.87,19.93 0.73,30.32 -3.15,10.41 -9.01,18.35 -18.08,23.97 -1.54,0.95 -4.53,1.36 -5.75,0.49 -1.35,-0.97 -2.32,-3.91 -1.91,-5.62 1.99,-8.3 1.63,-16.48 0.05,-24.74 -3.88,-20.3 -15.18,-34.77 -33.9,-43.5 -11.06,-5.16 -22.09,-10.39 -33.17,-15.49 -1.87,-0.86 -3.97,-1.24 -7.16,-2.2 0.55,3.34 0.65,5.49 1.28,7.48 3.85,12.11 7.87,24.16 11.74,36.27 6.52,20.38 11.87,41.03 15.41,62.17 2.11,12.57 5.45,24.96 6.99,37.58 1.31,10.66 1.64,21.59 0.9,32.29 -0.61,8.98 -0.63,18.38 -5.34,26.68 -2.87,5.04 -5.59,10.17 -8.62,15.12 -0.81,1.32 -2.36,2.54 -3.84,3.04 -10.82,3.7 -21.78,6.56 -33.41,4.48 -14.59,-2.62 -29.46,-18.74 -29.16,-33.43 0.13,-6.19 0.57,-13.34 5.36,-18.46 6.32,-6.75 10.61,-15.53 19.43,-19.83 1.47,-0.72 2.96,-1.47 4.52,-1.97 7.29,-2.33 14.6,-4.59 22.78,-7.13z"/>
  </g>
  <g id="_2383516994432">
   <path class="fil0" d="M108.35 1158.04c0.68,-14.55 6.38,-23.46 17.55,-28.75 4.65,-2.2 9.28,-4.56 14.15,-6.15 10.75,-3.51 21.83,-5.17 32.77,-1.19 6.81,2.47 13.18,6.12 19.8,9.15 14.99,6.84 20.4,26.34 13.32,42.39 -5.47,12.41 -14.85,20.6 -27.78,24.5 -11.07,3.33 -22.24,6.29 -34.03,4.06 -16.37,-3.1 -27.69,-11.95 -32.27,-28.34 -1.62,-5.8 -2.64,-11.77 -3.51,-15.67zm87.25 3.81l0 0c0.64,-4.63 -2.03,-8.79 -6.82,-11.66 -4.41,-2.64 -8.87,-5.22 -13.46,-7.51 -7.64,-3.8 -15.6,-4.74 -23.67,-1.47 -4.75,1.92 -9.47,3.97 -13.99,6.37 -12.65,6.71 -15.8,19.09 -6.67,29.94 12.12,14.39 28.59,19.25 46.67,11.85 10.32,-4.22 18.44,-16.73 17.94,-27.51z"/>
  </g>
  <g id="_2383516994112">
   <path class="fil0" d="M1866.95 1839.34c3.32,-0.65 5.78,-1.13 8.65,-1.7 7.24,6.04 9.37,14.84 10.97,23.42 5.1,27.29 9.85,54.65 14.27,82.06 2.6,16.1 4.43,32.33 6.44,48.53 1.84,14.74 4.03,29.46 5.02,44.26 1.05,15.69 -5.53,29.15 -15.7,40.59 -10.61,11.95 -38.37,13.84 -50.05,3.02 -9.16,-8.49 -17.48,-25.24 -8.61,-43.25 2.27,-4.62 3.81,-9.61 6.18,-14.16 3.3,-6.35 8.45,-10.39 15.75,-11.81 9.42,-1.83 18.75,-4.17 28.39,-6.36 -1.55,-9.38 -2.95,-18.38 -4.53,-27.36 -3.05,-17.2 -6.26,-34.38 -9.28,-51.59 -2.37,-13.54 -4.28,-27.16 -6.94,-40.64 -2.93,-14.88 -1.25,-29.66 -0.57,-45.01z"/>
  </g>
  <g id="_2383516994496">
   <path class="fil1" d="M1365.77 2817.33c0,57.38 -220.57,103.89 -492.66,103.89 -272.1,0 -492.66,-46.51 -492.66,-103.89 0,-57.38 220.56,-103.9 492.66,-103.9 272.09,0 492.66,46.51 492.66,103.9z"/>
   <path class="fil2" d="M1003.1 2523.63c0,0 15.52,109.3 33.84,115.17 18.32,5.86 223.26,-66.57 236.15,-91.06 12.88,-24.48 -22.72,-34.19 -72.31,-26.51 -49.58,7.71 -60.76,5.8 -60.76,5.8l-14.66 -38.34 -122.26 34.94z"/>
   <path class="fil3" d="M1205.29 2520.63l9.11 36.94 -189.44 63.43c3.75,9.65 7.78,16.45 11.99,17.8 18.32,5.86 223.26,-66.57 236.15,-91.06 12.48,-23.73 -20.61,-33.54 -67.81,-27.11z"/>
   <path class="fil2" d="M740.25 2635.14c0,0 76.27,79.81 69.54,97.83 -6.71,18.03 -190.42,134.22 -217.63,129.2 -27.21,-5.03 -12.8,-39.02 23.92,-73.2 36.73,-34.2 42.16,-44.16 42.16,-44.16l-21.07 -35.23 103.09 -74.44z"/>
   <path class="fil3" d="M612.82 2792.12l23.38 30.03 167.04 -109.61c5.26,8.9 8.1,16.3 6.56,20.43 -6.72,18.03 -190.43,134.22 -217.64,129.2 -26.38,-4.87 -13.58,-36.95 20.66,-70.06z"/>
   <path class="fil4" d="M1295.61 423.2l-2.42 -0.48c7.93,-32.69 21.77,-94.61 12.69,-94.99 -12.34,-0.49 -35.99,88.55 -35.99,88.55l-0.2 1.83 -1.9 -0.37c6.99,-27.99 25.1,-104.14 15.04,-104.55 -12.35,-0.5 -35.98,88.54 -35.98,88.54l-1.23 11.65 -12.32 -2.43c5.02,-26.84 12.84,-73.86 6.04,-74.46 -9.5,-0.83 -24.64,70.79 -24.64,70.79l-23.15 79.04c0,0 -1.52,-41.41 -4.73,-63.79 -3.19,-22.39 -14.15,1.7 -16.03,14.8 -1.9,13.1 0.29,72.25 0.29,72.25l59.95 148.23c0,0 5.49,-12.05 31.82,-68.69 26.34,-56.65 53.26,-161.89 53.26,-161.89 0,0 11.18,-40.75 6.9,-42.14 -5.25,-1.71 -17.77,19.7 -27.42,38.11z"/>
   <path class="fil4" d="M19.7 329.58l2.32 0.14c0.53,-31.72 2.62,-91.51 11,-89.7 11.37,2.47 11.81,89.36 11.81,89.36l-0.26 1.69 1.82 0.12c0.27,-27.21 1.83,-100.99 11.12,-98.98 11.37,2.48 11.8,89.35 11.8,89.35l-1.65 10.91 11.82 0.71c1.79,-25.68 5.84,-70.44 12.18,-69.37 8.87,1.5 5.66,70.46 5.66,70.46l2.35 77.62c0,0 11.22,-37.42 19.46,-57.09 8.24,-19.67 12.51,4.92 11.11,17.33 -1.38,12.4 -17.42,65.86 -17.42,65.86l-89.93 121.01c0,0 -2.14,-12.3 -12.71,-70.24 -10.58,-57.95 -10.15,-160.37 -10.15,-160.37 0,0 -0.51,-39.85 3.72,-40.1 5.18,-0.32 11.53,22.2 15.96,41.29z"/>
   <path class="fil4" d="M514.17 968.6c0,0 -131.34,-27.99 -201.76,-82.29 -84.28,-65 -144.46,-194.66 -168.12,-274.47 -23.67,-79.83 -31.48,-173.85 -31.48,-173.85l-102.64 50.77c0,0 23.96,186.28 77.21,308.34 47.67,109.28 119.08,211.14 223.91,274.25 104.84,63.11 124.28,70.11 124.28,70.11 0,0 -3.73,505.42 -4.58,512.08 -0.85,6.66 -61.65,357.98 -27.03,581.49 34.63,223.5 223.03,498.32 223.03,498.32l132.5 -82.42c0,0 -158.61,-295.83 -186.15,-468.76 -27.55,-172.91 28.7,-400.59 28.7,-400.59l62.04 -25.93c0,0 201.77,170.38 256.1,310.58 54.32,140.2 50.22,489.74 50.22,489.74l191.08 -63.61c0,0 -33.61,-284.35 -78.59,-479.83 -44.98,-195.47 -307.16,-423.26 -307.16,-423.26l-37.9 -427.19c0,0 144.6,-35.69 262.69,-128.98 118.1,-93.28 215.99,-311.11 242.31,-375.5 26.3,-64.38 36.73,-110.47 36.73,-110.47l-106.84 -47.56c0,0 -30.92,118.01 -95.44,233.96 -64.54,115.95 -166.51,206.79 -286.09,241.16 -119.58,34.38 -277,-6.1 -277,-6.1z"/>
   <path class="fil5" d="M664.08 1755.67c0,0 201.77,170.38 256.1,310.58 54.32,140.2 50.22,489.74 50.22,489.74l191.08 -63.61c0,0 -33.61,-284.35 -78.59,-479.83 -44.98,-195.47 -307.16,-423.26 -307.16,-423.26l-8.43 -94.93c-33.9,13.15 -79.36,25.12 -139.21,30.86 -96,9.2 -158.82,2.82 -195.56,-4.56 -0.67,74.47 -1.27,130.71 -1.54,132.9 -0.85,6.66 -61.65,357.98 -27.03,581.49 34.63,223.5 223.03,498.32 223.03,498.32l132.5 -82.42c0,0 -158.61,-295.83 -186.15,-468.76 -27.55,-172.91 28.7,-400.59 28.7,-400.59l62.04 -25.93z"/>
   <path class="fil6" d="M770.05 1525.19l-32.22 -363.09c0,0 144.6,-35.69 262.69,-128.98 30.04,-23.73 58.76,-55.53 85.34,-90.8l-85.9 -101.41c-58.04,63.29 -129.49,111.01 -208.78,133.8 -119.58,34.38 -277,-6.1 -277,-6.1 0,0 -131.34,-27.99 -201.76,-82.3 -63.47,-48.95 -113.26,-134.56 -144.09,-207.95l-103.11 62.42c4.52,16.84 8.5,17.51 13.29,32.03 37.46,113.19 127.96,235.45 232.79,298.56 104.84,63.11 124.28,70.11 124.28,70.11 0,0 -1.96,264.29 -3.35,413.16 51.14,18.02 167.05,40.65 337.83,-29.44z"/>
   <path class="fil2" d="M539.54 1123.16c0,0 -32.06,38.8 -87.21,81.43 -55.14,42.63 -322.57,173.27 -322.57,173.27l-36.33 72.13 99.47 -0.81c0,0 316.91,-234.96 364.41,-323.73l-17.78 -2.27z"/>
   <polygon class="fil2" points="521.98,1048.64 536.3,1095.65 533.9,1149.55 584.04,1110.79 629.45,1073.69 601.62,991.08 "/>
   <path class="fil7" d="M556.2 940.1c0,0 -24.73,-0.9 -42.03,28.5 -17.33,29.39 -35.98,139.93 -35.98,139.93 0,0 58.51,-51.22 89.61,-47.24 31.11,3.98 90.38,70.29 90.38,70.29 0,0 24.49,-103.02 16.78,-131.1 -7.71,-28.09 -80.91,-73.6 -118.75,-60.38z"/>
   <path class="fil8" d="M552.21 883.13c0,0 -18.33,90.25 -18.73,128.6 -0.39,38.34 26.11,95.94 26.11,95.94l74.74 -89.81 29.44 -88.83 -111.57 -45.9z"/>
   <path class="fil2" d="M862.22 772.64c-14.07,109.83 -115.99,187.29 -227.67,172.98 -111.68,-14.31 -190.81,-114.93 -176.74,-224.76 14.05,-109.83 115.99,-187.28 227.67,-172.98 111.68,14.3 190.8,114.93 176.75,224.76z"/>
   <path class="fil4" d="M549.4 799.21c0,0 -8.73,-55.33 -32.7,-26.78 -23.99,28.55 -1.88,67.51 13.68,69.5 15.56,2 19.02,-42.72 19.02,-42.72z"/>
   <path class="fil4" d="M724.94 821.68c0,0 29.51,-18.81 34.99,9 5.48,27.8 -15.43,49.97 -29.61,54.93 -14.18,4.95 -21.37,-9.51 -21.37,-9.51l15.99 -54.41z"/>
   <path class="fil4" d="M574.17 693.98c0,0 -55.71,135.14 -38.37,193.83 17.32,58.68 68.68,81.06 125.7,59.01 57.03,-22.06 103.71,-210.31 103.71,-210.31 0,0 -52.43,-119.64 -191.04,-42.52z"/>
   <path class="fil7" d="M168.32 678.35l-103.11 62.42c4.52,16.84 8.5,17.51 13.29,32.03 2.68,8.06 5.68,16.17 8.88,24.31l115.45 -47.5c-13.27,-23.95 -24.83,-48.2 -34.51,-71.26z"/>
   <path class="fil7" d="M943.19 893.93l97.03 102.55c15.76,-16.51 31.03,-34.79 45.64,-54.16l-85.9 -101.41c-17.69,19.28 -36.75,36.91 -56.76,53.03z"/>
  </g>
  <g id="_2383516936800">
   <path class="fil1" d="M1965.31 2817.33c0,57.38 -220.57,103.89 -492.67,103.89 -272.1,0 -492.67,-46.51 -492.67,-103.89 0,-57.38 220.57,-103.9 492.67,-103.9 272.1,0 492.67,46.51 492.67,103.9z"/>
   <path class="fil2" d="M1614.95 670.89c0,0 -14.53,-52.77 -27.33,-131.3 -12.78,-78.53 -80.27,-114.18 -169.45,-96.94 -89.19,17.24 -104.75,93.85 -159.67,178.13 -54.92,84.3 -291.31,210.62 -275.82,325.58 15.49,114.97 117.39,101.17 87.94,153.54 -29.44,52.36 -108.78,153.11 7.09,238.65 115.86,85.53 235.72,-2.11 289.04,89.53 53.32,91.64 112.66,170.75 300.18,116.18 187.52,-54.58 193.69,-183.6 162.34,-255.63 -31.35,-72.03 -8.98,-96.39 94.14,-128.22 103.13,-31.83 139.71,-151.02 87.39,-219.29 -52.32,-68.28 -104.96,-17.49 -218.6,-97.69 -113.63,-80.2 -162.02,-130.09 -177.25,-172.55z"/>
   <path class="fil9" d="M1393.05 745.66c0,0 -0.67,44.13 -12.77,85.16 -12.09,41.04 -27.23,58.61 -27.23,58.61 0,0 30.25,-0.28 62.33,6.55 32.09,6.83 65.6,-7.16 65.6,-7.16 0,0 -9.37,-33.19 -6.54,-74.86 2.83,-41.66 3.77,-55.55 3.77,-55.55l-85.16 -12.76z"/>
   <path class="fil10" d="M1532.35 631.89c2.81,-41.5 -12.11,-86.55 -54.93,-100.58 -45.49,-14.91 -91.2,9.91 -100.57,57.45 -13.66,69.35 -28.53,213.58 76.87,215.64 69.92,1.36 75.39,-124.86 78.63,-172.51z"/>
   <path class="fil5" d="M1511.15 2732.31c0,0 -128.46,100 -114.05,116.52 14.41,16.5 51.72,0.91 141.95,-31.78 90.25,-32.71 116.41,-74.94 122.96,-95.2 6.56,-20.27 -150.86,10.46 -150.86,10.46z"/>
   <path class="fil10" d="M1525.47 849.99c0,0 -80.89,27.06 -160.65,3.04 -79.74,-24.03 -135.84,-88.29 -154.65,-222.11 -18.81,-133.82 -23.3,-238.76 -16.86,-333.65 6.45,-94.9 6.29,-92.59 14.03,-103.69 7.73,-11.1 55.6,-31.1 62.11,-58.56 6.52,-27.46 -13.48,-75.32 -19.06,-61.75 -5.57,13.56 -1.89,27.77 -1.89,27.77 0,0 0.05,-34.87 -14.78,-21.93 -14.84,12.94 -0.37,39.5 -0.37,39.5 0,0 -20.15,-45.56 -23.4,-31.82 -3.26,13.73 2.11,37.35 2.11,37.35 0,0 -22.94,-38.77 -23.73,-27.19 -0.79,11.57 8.74,42.45 8.74,42.45 0,0 -56.96,17.05 -58.21,35.57 -1.27,18.52 -2.57,71.91 -2.57,71.91 0,0 -12.62,220.04 9.05,414.51 21.67,194.46 132.48,308.95 132.48,308.95 0,0 -79.84,45.73 -76.67,101.76 3.17,56.02 39.85,98.04 38.11,123.5 -1.73,25.46 -19.23,77.75 -6.57,199.52 12.65,121.78 19.35,194.32 19.35,194.32 0,0 -128.38,109.87 -205.25,248.8 -76.87,138.95 -55.3,163.67 5.12,232.87 60.4,69.22 279.27,270.1 313.91,342.21 34.63,72.11 74.74,200.4 80.08,258.9 5.33,58.49 10.22,89.06 10.22,89.06 0,0 95.05,4.13 146.92,-6.3 51.87,-10.42 102.52,-37.22 102.52,-37.22 0,0 -14.35,-131.18 -49.36,-266.1 -35.01,-134.92 -147.16,-298.33 -181.78,-370.44 -34.63,-72.11 -54.16,-126.92 -54.16,-126.92 0,0 73.77,-127.53 130.2,-205.08 56.42,-77.55 103.74,-158.05 79.47,-245.73 -24.28,-87.68 -146.66,-202.96 -153.87,-233.69 -7.21,-30.71 3.46,-50.91 42.89,-118 39.44,-67.07 64.25,-158.4 124.98,-231.01 60.73,-72.61 129.36,-158.62 152.01,-252.42 22.64,-93.8 38.75,-262.45 48.74,-340.83 7.12,-56 0.4,-74.39 14.43,-75.75 14.06,-1.37 104.36,-30.11 105.62,-48.63 1.26,-18.52 -3.9,-79.32 -9.01,-72.69 -5.1,6.62 -6.52,27.46 -6.52,27.46l-3.1 11.42c0,0 -12.74,-52.03 -18.63,-33.82 -5.88,18.2 -9.93,43.51 -9.93,43.51 0,0 -12.27,-58.97 -20.32,-43.24 -8.03,15.73 -1.14,51.07 -1.14,51.07 0,0 -21.53,-59.59 -24.94,-43.55 -3.42,16.05 -0.52,41.83 -0.52,41.83 0,0 -57.86,-3.93 -60.38,33.1 -2.51,37.04 -14.26,175.75 -69.24,334.79 -54.98,159.03 -139.54,274.2 -215.5,296.94z"/>
   <path class="fil6" d="M1456.09 2761.29c0,0 95.05,4.13 146.92,-6.3 51.87,-10.42 102.52,-37.22 102.52,-37.22 0,0 -14.35,-131.19 -49.36,-266.1 -35.01,-134.92 -147.16,-298.33 -181.78,-370.44 -34.63,-72.11 -54.16,-126.92 -54.16,-126.92 0,0 73.77,-127.53 130.2,-205.08 56.42,-77.55 103.75,-158.05 79.47,-245.73 -13.68,-49.46 -58.58,-107.67 -96.43,-154.55 -14.54,9.38 -30.52,20.22 -47.93,32.84 -67.08,48.59 -195.54,37.77 -251.13,30.21 11.52,111.51 17.62,177.45 17.62,177.45 0,0 -128.38,109.87 -205.25,248.8 -76.87,138.95 -55.3,163.66 5.12,232.87 60.4,69.22 279.27,270.1 313.91,342.21 34.63,72.11 74.74,200.4 80.08,258.9 5.33,58.49 10.22,89.06 10.22,89.06z"/>
   <path class="fil11 str0" d="M1469.47 1415.21c0,0 78.72,60.57 75.15,163.88 -3.56,103.31 -211.68,372.23 -207.37,410.48 4.31,38.27 163.36,339.02 218.61,491.2 55.25,152.17 47.16,274.21 47.16,274.21"/>
   <path class="fil12" d="M1549.11 1368.53c-35.48,-45.03 -69.38,-82.97 -73.08,-98.71 -7.21,-30.71 3.46,-50.91 42.89,-118 39.44,-67.07 64.25,-158.4 124.98,-231.01 27.32,-32.65 56.19,-68.04 81.8,-105.59 -21.25,-10.99 -43.89,-27.63 -60.01,-52.87 -5.43,-8.49 -10.26,-16.51 -14.64,-24.11 -40.31,59.39 -84.2,99.36 -125.58,111.75 0,0 -80.9,27.06 -160.65,3.04 -69.4,-20.91 -120.86,-72.35 -145.45,-173.54 -17.83,14.65 -39.42,32.26 -62.22,50.63 35.67,152.42 120.65,240.23 120.65,240.23 0,0 -79.84,45.73 -76.67,101.76 3.17,56.02 39.85,98.04 38.11,123.5 -1.73,25.46 -19.23,77.75 -6.57,199.52 1.89,18.18 3.62,35.1 5.25,51 39.46,0.48 99.18,-0.52 164.4,-7.87 61.13,-6.87 112.32,-40.14 146.8,-69.73z"/>
   <path class="fil11 str0" d="M1374.24 1622.76c0,0 -179.72,282.91 -172.09,361.1 7.62,78.18 181.02,460.16 181.02,460.16"/>
  </g>
 </g>
</svg>
