<?xml version="1.0" encoding="UTF-8"?>
<!DOCTYPE svg PUBLIC "-//W3C//DTD SVG 1.1//EN" "http://www.w3.org/Graphics/SVG/1.1/DTD/svg11.dtd">
<!-- Creator: CorelDRAW 2018 (64 Bit Versão de avaliação) -->
<svg xmlns="http://www.w3.org/2000/svg" xml:space="preserve" width="105.232mm" height="100.166mm" version="1.1" style="shape-rendering:geometricPrecision; text-rendering:geometricPrecision; image-rendering:optimizeQuality; fill-rule:evenodd; clip-rule:evenodd"
viewBox="0 0 10523.18 10016.62"
 xmlns:xlink="http://www.w3.org/1999/xlink">
 <defs>
  <style type="text/css">
   <![CDATA[
    .fil0 {fill:#50514F;fill-rule:nonzero}
    .fil3 {fill:#F25F5C;fill-rule:nonzero}
    .fil4 {fill:#F58A88;fill-rule:nonzero}
    .fil1 {fill:#FFE066;fill-rule:nonzero}
    .fil2 {fill:white;fill-rule:nonzero}
   ]]>
  </style>
 </defs>
 <g id="Camada_x0020_1">
  <metadata id="CorelCorpID_0Corel-Layer"/>
  <g id="_2347762736960">
   <path class="fil0" d="M2979.81 1388.22l-201.39 -348.82c-75.03,-130.58 -29.99,-297.32 100.59,-372.34 130.57,-75.02 297.31,-29.99 372.34,100.59l251.53 435.68c-43.97,-134.4 22.32,-282.14 155.11,-337.29 139.45,-57.9 299.47,8.21 357.38,147.66l13.14 31.64 -144.83 -540.52c-38.99,-145.95 47.71,-295.9 193.67,-334.9 145.95,-38.99 295.9,47.72 334.89,193.67l106.59 397.77c29.91,-99.07 115.05,-176.78 224.28,-191.88 149.5,-20.67 287.47,83.76 308.15,233.26l38.72 274.36c0,-227.44 -12.13,-649.94 4.27,-851.47 14.68,-180.29 282.43,-317.35 458.63,-149.77l74.53 123.28c23.1,173.71 10.39,332.1 10.39,512.43 49.79,-102.01 160.28,-166.14 279.27,-151.62 150.08,18.3 256.9,154.86 238.6,304.95l-22.56 179.55 182.44 -680.86c39,-145.95 188.95,-232.66 334.9,-193.67 145.95,39 232.66,188.95 193.67,334.9l-117.94 440.19c72.65,-95.97 203.21,-135.32 320.01,-87.82 139.45,56.72 206.51,215.79 149.79,355.24l-55.98 136.91 336.45 -582.76c75.63,-130.58 242.85,-175.13 373.43,-99.5 130.58,75.63 175.13,242.85 99.5,373.43l-360.38 624.2 120.34 -154.76c92.77,-119.36 264.75,-140.91 384.11,-48.14 93.74,72.85 127.14,194.53 92.24,301.24l306.56 -306.56c106.96,-106.96 280.37,-106.96 387.33,0 106.95,106.95 106.95,280.37 0,387.33l-603.49 603.48 262.65 -196.94c120.54,-90.4 291.59,-65.98 381.99,54.56 63.45,84.62 70.33,194.12 27.1,283.15l348.81 -201.39c130.58,-75.02 297.32,-29.99 372.35,100.59 75.02,130.58 29.99,297.32 -100.59,372.34l-435.68 251.53c134.4,-43.96 282.14,22.33 337.28,155.12 57.91,139.45 -8.21,299.47 -147.66,357.37l-31.66 13.16 540.54 -144.84c145.96,-39 295.91,47.71 334.9,193.66 39,145.95 -47.71,295.9 -193.66,334.9l-397.77 106.59c99.07,29.91 176.77,115.05 191.88,224.27 20.67,149.51 -83.76,287.48 -233.27,308.15l-274.35 38.73c227.44,0 649.94,-12.13 851.46,4.27 180.31,14.67 317.33,282.45 149.78,458.62l-123.28 74.54c-173.71,23.1 -332.1,10.39 -512.43,10.39 102,49.79 166.14,160.27 151.62,279.26 -18.31,150.09 -154.87,256.91 -304.95,238.6l-179.55 -22.55 680.86 182.44c145.95,39 232.66,188.95 193.66,334.9 -38.99,145.95 -188.94,232.66 -334.9,193.66l-440.22 -117.96c96.01,72.64 135.37,203.24 87.85,320.05 -56.71,139.45 -215.79,206.52 -355.24,149.8l-136.81 -55.95 582.67 336.4c130.57,75.62 175.12,242.85 99.5,373.43 -75.63,130.58 -242.85,175.12 -373.43,99.5l-624.2 -360.39 154.76 120.35c119.36,92.77 140.91,264.75 48.14,384.11 -72.85,93.73 -194.54,127.14 -301.24,92.24l306.56 306.56c106.95,106.95 106.95,280.37 0,387.32 -106.96,106.96 -280.37,106.96 -387.33,0l-603.49 -603.48 196.95 262.65c90.39,120.54 65.97,291.59 -54.57,381.99 -84.61,63.45 -194.11,70.32 -283.15,27.09l201.39 348.82c75.03,130.58 29.99,297.32 -100.59,372.34 -130.57,75.03 -297.31,29.99 -372.34,-100.59l-251.53 -435.68c43.97,134.41 -22.32,282.14 -155.11,337.29 -139.45,57.9 -299.47,-8.21 -357.38,-147.66l-13.14 -31.64 144.83 540.52c38.99,145.95 -47.71,295.9 -193.67,334.9 -145.95,39 -295.9,-47.71 -334.89,-193.67l-106.59 -397.77c-29.91,99.08 -115.05,176.78 -224.28,191.88 -149.5,20.67 -287.47,-83.76 -308.15,-233.26l-38.72 -274.36c0,227.44 12.13,649.94 -4.27,851.47 -14.68,180.29 -282.43,317.35 -458.63,149.77l-74.53 -123.27c-23.1,-173.71 -10.39,-332.11 -10.39,-512.44 -49.79,102.01 -160.28,166.14 -279.27,151.62 -150.08,-18.3 -256.9,-154.86 -238.6,-304.94l22.56 -179.56 -182.45 680.86c-38.99,145.96 -188.94,232.67 -334.89,193.67 -145.96,-39 -232.66,-188.95 -193.67,-334.9l117.96 -440.22c-72.63,96 -203.23,135.37 -320.05,87.85 -139.44,-56.72 -206.51,-215.79 -149.79,-355.24l55.94 -136.81 -336.39 582.66c-75.63,130.58 -242.85,175.13 -373.43,99.5 -130.58,-75.62 -175.13,-242.85 -99.5,-373.43l360.38 -624.2 -120.35 154.77c-92.76,119.36 -264.74,140.9 -384.1,48.14 -93.74,-72.85 -127.14,-194.54 -92.24,-301.24l-306.56 306.56c-106.96,106.95 -280.37,106.95 -387.33,0 -106.95,-106.96 -106.95,-280.38 0,-387.33l603.45 -603.45 -262.61 196.9c-120.54,90.4 -291.59,65.98 -381.99,-54.56 -63.45,-84.61 -70.33,-194.11 -27.1,-283.15l-348.81 201.39c-130.58,75.02 -297.32,29.99 -372.35,-100.59 -75.02,-130.58 -29.99,-297.32 100.59,-372.34l435.68 -251.53c-134.4,43.97 -282.14,-22.32 -337.28,-155.11 -57.91,-139.45 8.21,-299.48 147.66,-357.38l31.64 -13.14 -540.52 144.82c-145.96,39 -295.91,-47.71 -334.9,-193.66 -39,-145.95 47.71,-295.9 193.66,-334.9l397.77 -106.58c-99.07,-29.92 -176.77,-115.05 -191.88,-224.28 -20.67,-149.5 83.76,-287.48 233.27,-308.15l274.35 -38.72c-227.44,0 -649.94,12.13 -851.46,-4.27 -180.31,-14.68 -317.33,-282.45 -149.78,-458.63l123.28 -74.54c173.71,-23.1 332.1,-10.38 512.43,-10.38 -102,-49.79 -166.14,-160.28 -151.62,-279.27 18.31,-150.09 154.86,-256.9 304.95,-238.6l179.55 22.56 -680.86 -182.45c-145.95,-39 -232.66,-188.95 -193.66,-334.9 38.99,-145.95 188.94,-232.66 334.9,-193.66l440.22 117.96c-96.01,-72.64 -135.37,-203.23 -87.86,-320.05 56.72,-139.45 215.8,-206.51 355.25,-149.79l136.81 55.94 -582.67 -336.39c-130.57,-75.63 -175.12,-242.86 -99.5,-373.43 75.63,-130.58 242.85,-175.13 373.43,-99.51l624.2 360.39 -154.76 -120.35c-119.36,-92.76 -140.91,-264.75 -48.14,-384.1 72.85,-93.74 194.54,-127.15 301.24,-92.25l-306.56 -306.55c-106.95,-106.96 -106.95,-280.38 0,-387.33 106.96,-106.96 280.37,-106.96 387.33,0l603.45 603.45 -196.91 -262.61c-90.39,-120.55 -65.97,-291.6 54.57,-381.99 84.61,-63.46 194.11,-70.33 283.15,-27.1zm4283.63 -659.57c115.67,0 209.47,-93.79 209.47,-209.48 0,-115.67 -93.8,-209.47 -209.47,-209.47 -115.69,0 -209.48,93.8 -209.48,209.47 0,115.69 93.79,209.48 209.48,209.48zm-3751.5 -57.14c115.67,0 209.47,-93.8 209.47,-209.49 0,-115.67 -93.8,-209.46 -209.47,-209.46 -115.69,0 -209.48,93.79 -209.48,209.46 0,115.69 93.79,209.49 209.48,209.49zm-2912.85 3881.01c115.67,0 209.47,-93.79 209.47,-209.48 0,-115.67 -93.8,-209.47 -209.47,-209.47 -115.69,0 -209.48,93.8 -209.48,209.47 0,115.69 93.79,209.48 209.48,209.48zm1767.65 4476.56c115.67,0 209.46,-93.79 209.46,-209.48 0,-115.67 -93.79,-209.47 -209.46,-209.47 -115.69,0 -209.49,93.8 -209.49,209.47 0,115.69 93.8,209.48 209.49,209.48zm3625.7 987.54c115.67,0 209.46,-93.79 209.46,-209.48 0,-115.67 -93.79,-209.47 -209.46,-209.47 -115.69,0 -209.49,93.8 -209.49,209.47 0,115.69 93.8,209.48 209.49,209.48zm3858.48 -2958.97c115.67,0 209.46,-93.79 209.46,-209.48 0,-115.67 -93.79,-209.47 -209.46,-209.47 -115.69,0 -209.49,93.8 -209.49,209.47 0,115.69 93.8,209.48 209.49,209.48zm25.17 -3750.59c115.67,0 209.47,-93.8 209.47,-209.49 0,-115.67 -93.8,-209.46 -209.47,-209.46 -115.69,0 -209.48,93.79 -209.48,209.46 0,115.69 93.79,209.49 209.48,209.49zm-4512.2 -3306.86l0 0zm-4971.95 4971.96l0 0zm4971.95 4971.95l0 0zm4971.95 -4971.95l0 0z"/>
   <polygon class="fil1" points="2521.42,3999.12 2962.66,3999.12 2962.66,4219.73 2245.24,4219.73 2245.24,3028.41 2521.42,3028.41 "/>
   <path id="1" class="fil1" d="M4203 3623.53c0,86.34 -14.71,166.41 -44.4,240.49 -29.69,74.09 -71.63,138.64 -125.56,193.38 -53.93,54.75 -118.75,97.78 -194.74,128.83 -75.99,31.05 -160.42,46.57 -253.02,46.57 -92.61,0 -177.04,-15.52 -253.3,-46.57 -76.26,-31.05 -141.36,-74.08 -195.56,-128.83 -54.2,-54.74 -96.14,-119.29 -125.83,-193.38 -29.69,-74.08 -44.67,-154.15 -44.67,-240.49 0,-86.07 14.98,-166.14 44.67,-240.23 29.69,-74.08 71.63,-138.36 125.83,-193.1 54.2,-54.48 119.3,-97.24 195.56,-128.29 76.26,-31.05 160.69,-46.57 253.3,-46.57 92.6,0 177.03,15.8 253.02,47.12 75.99,31.32 140.81,74.08 194.74,128.55 53.93,54.75 95.87,119.03 125.56,193.11 29.69,74.08 44.4,153.88 44.4,239.41zm-282.72 0.54c0,-58.83 -7.62,-111.94 -22.88,-159.06 -15.25,-47.12 -37.04,-86.88 -65.63,-119.57 -28.6,-32.68 -63.74,-57.74 -105.14,-75.17 -41.4,-17.43 -88.52,-26.15 -141.35,-26.15 -53.39,0 -100.78,8.72 -142.45,26.15 -41.67,17.43 -76.81,42.49 -105.4,75.17 -28.6,32.69 -50.66,72.45 -65.92,119.57 -15.25,47.12 -22.87,100.23 -22.87,159.06 0,59.38 7.62,112.49 22.87,159.61 15.26,47.12 37.32,87.15 65.92,119.84 28.59,32.68 63.73,57.46 105.4,74.62 41.67,17.16 89.06,25.88 142.45,25.88 52.83,0 99.95,-8.72 141.35,-25.88 41.4,-17.16 76.54,-41.94 105.14,-74.62 28.59,-32.69 50.38,-72.72 65.63,-119.84 15.26,-47.12 22.88,-100.23 22.88,-159.61z"/>
   <path id="2" class="fil1" d="M4830.52 4000.75c37.04,0 70.27,-6.26 99.41,-18.52 29.14,-12.26 53.66,-29.69 73.81,-52.57 20.16,-22.88 35.68,-50.93 46.3,-83.88 10.62,-32.96 15.8,-70.27 15.8,-112.22l0 -705.15 276.18 0 0 705.7c0,72.99 -11.72,139.99 -35.41,201 -23.7,61.01 -57.74,113.85 -101.87,157.97 -44.12,44.12 -97.77,78.44 -160.96,102.95 -63.19,24.52 -134.28,36.77 -213.26,36.77 -79.53,0 -150.89,-12.25 -214.08,-36.77 -63.19,-24.51 -116.84,-58.83 -160.97,-102.95 -44.12,-44.12 -77.89,-96.96 -101.32,-157.97 -23.42,-61.01 -35.13,-128.01 -35.13,-201l0 -705.7 276.18 0 0 704.33c0,41.95 5.44,79.26 16.06,112.22 10.63,32.95 25.88,61.01 46.03,84.16 20.16,23.15 44.94,40.85 74.09,53.11 29.14,12.26 62.1,18.52 99.14,18.52z"/>
   <path id="3" class="fil1" d="M6321.7 3911.69c6.54,0 13.08,1.09 19.61,3.81 6.54,2.45 12.8,6.81 18.8,12.8l109.49 117.66c-47.94,61.83 -107.86,108.4 -180.04,139.72 -72.17,31.33 -157.7,47.12 -256.29,47.12 -90.43,0 -171.32,-15.52 -242.95,-46.3 -71.63,-30.78 -132.37,-73.26 -182.21,-127.46 -49.84,-54.2 -88.25,-118.48 -114.94,-192.84 -26.69,-74.63 -40.03,-155.24 -40.03,-242.67 0,-88.79 15.25,-170.23 45.75,-244.86 30.51,-74.35 73.27,-138.36 128.01,-192.56 54.75,-53.93 120.12,-95.87 196.38,-125.83 76.26,-29.96 160.42,-44.94 252.48,-44.94 44.67,0 86.88,4.08 126.37,11.98 39.5,7.9 76.27,18.8 110.58,32.69 34.32,13.89 65.92,30.77 94.79,50.11 28.87,19.34 54.47,40.86 76.8,64.55l-93.15 125.02c-5.99,7.62 -13.07,14.43 -21.24,20.7 -8.17,6.26 -19.61,9.53 -34.32,9.53 -9.8,0 -19.06,-2.18 -27.78,-6.54 -8.71,-4.36 -17.97,-9.8 -27.78,-16.07 -9.8,-6.26 -20.43,-13.07 -32.14,-20.42 -11.71,-7.36 -25.6,-14.17 -41.67,-20.43 -16.07,-6.27 -34.86,-11.44 -56.38,-15.8 -21.52,-4.36 -46.85,-6.54 -75.72,-6.54 -50.11,0 -95.87,8.72 -137.27,26.42 -41.4,17.71 -76.8,43.04 -106.49,75.99 -29.69,32.96 -52.84,73 -69.45,119.84 -16.62,46.85 -25.06,99.42 -25.06,157.7 0,61.01 8.44,115.21 25.06,162.6 16.61,47.39 39.22,87.16 67.81,119.57 28.6,32.41 61.83,57.2 99.96,74.08 38.13,16.89 78.99,25.33 122.57,25.33 25.05,0 47.93,-1.36 68.63,-3.81 20.7,-2.45 40.04,-6.54 57.74,-12.53 17.71,-5.99 34.59,-13.89 50.66,-23.42 16.07,-9.54 32.14,-21.25 48.48,-35.41 6.54,-5.45 13.62,-10.08 21.25,-13.62 7.62,-3.54 15.52,-5.17 23.69,-5.17z"/>
   <path id="4" class="fil1" d="M7770.41 3623.53c0,86.34 -14.71,166.41 -44.4,240.49 -29.69,74.09 -71.63,138.64 -125.56,193.38 -53.93,54.75 -118.75,97.78 -194.74,128.83 -75.99,31.05 -160.42,46.57 -253.02,46.57 -92.61,0 -177.04,-15.52 -253.3,-46.57 -76.26,-31.05 -141.36,-74.08 -195.56,-128.83 -54.2,-54.74 -96.14,-119.29 -125.83,-193.38 -29.69,-74.08 -44.67,-154.15 -44.67,-240.49 0,-86.07 14.98,-166.14 44.67,-240.23 29.69,-74.08 71.63,-138.36 125.83,-193.1 54.2,-54.48 119.3,-97.24 195.56,-128.29 76.26,-31.05 160.69,-46.57 253.3,-46.57 92.6,0 177.03,15.8 253.02,47.12 75.99,31.32 140.81,74.08 194.74,128.55 53.93,54.75 95.87,119.03 125.56,193.11 29.69,74.08 44.4,153.88 44.4,239.41zm-282.72 0.54c0,-58.83 -7.62,-111.94 -22.88,-159.06 -15.25,-47.12 -37.04,-86.88 -65.63,-119.57 -28.6,-32.68 -63.74,-57.74 -105.14,-75.17 -41.4,-17.43 -88.52,-26.15 -141.35,-26.15 -53.39,0 -100.78,8.72 -142.45,26.15 -41.67,17.43 -76.81,42.49 -105.4,75.17 -28.6,32.69 -50.66,72.45 -65.92,119.57 -15.25,47.12 -22.87,100.23 -22.87,159.06 0,59.38 7.62,112.49 22.87,159.61 15.26,47.12 37.32,87.15 65.92,119.84 28.59,32.68 63.73,57.46 105.4,74.62 41.67,17.16 89.06,25.88 142.45,25.88 52.83,0 99.95,-8.72 141.35,-25.88 41.4,-17.16 76.54,-41.94 105.14,-74.62 28.59,-32.69 50.38,-72.72 65.63,-119.84 15.26,-47.12 22.88,-100.23 22.88,-159.61z"/>
   <path id="5" class="fil1" d="M8566.26 3270.54c-8.17,13.08 -16.62,22.88 -25.6,29.42 -8.99,6.26 -20.7,9.53 -34.87,9.53 -12.53,0 -25.87,-3.81 -40.31,-11.71 -14.43,-7.9 -30.77,-16.89 -49.02,-26.69 -18.25,-9.81 -39.22,-18.52 -62.65,-26.42 -23.42,-7.9 -50.11,-11.98 -80.07,-11.98 -51.75,0 -90.15,11.16 -115.48,33.22 -25.33,22.07 -38.13,51.75 -38.13,89.34 0,23.97 7.62,43.85 22.88,59.92 15.25,15.8 35.4,29.41 60.19,40.85 24.78,11.44 53.11,21.79 84.97,31.32 31.87,9.54 64.28,20.16 97.51,31.87 33.23,11.71 65.91,25.6 97.78,41.4 31.87,15.8 60.19,35.95 84.98,60.47 24.78,24.51 44.66,54.47 59.92,89.6 15.25,35.14 22.88,77.63 22.88,127.2 0,55.01 -9.54,106.49 -28.6,154.43 -19.07,47.93 -46.58,89.88 -82.8,125.56 -36.23,35.68 -80.89,63.73 -134,84.16 -53.11,20.42 -113.58,30.77 -181.13,30.77 -37.04,0 -74.62,-3.81 -113.03,-11.16 -38.4,-7.63 -75.71,-18.25 -111.67,-31.87 -35.95,-13.62 -69.72,-29.96 -101.31,-48.75 -31.6,-18.8 -59.11,-39.77 -82.53,-62.65l81.71 -131.28c5.99,-9.8 14.43,-17.97 25.33,-23.96 10.89,-6 22.6,-8.99 35.13,-8.99 16.34,0 32.96,5.17 49.57,15.52 16.62,10.35 35.41,21.79 56.38,34.32 20.97,12.53 44.94,23.97 72.18,34.32 27.23,10.35 59.37,15.52 96.42,15.52 50.11,0 89.06,-11.16 116.84,-33.23 27.78,-22.06 41.67,-56.92 41.67,-104.85 0,-28.06 -7.63,-50.66 -22.88,-68.1 -15.25,-17.43 -35.13,-31.86 -59.92,-43.3 -24.78,-11.44 -53.11,-21.52 -84.7,-30.23 -31.6,-8.72 -64.01,-18.25 -97.24,-28.87 -33.22,-10.63 -65.64,-23.7 -97.23,-39.5 -31.59,-15.52 -59.65,-35.95 -84.43,-61.28 -24.79,-25.33 -44.94,-56.92 -60.2,-94.78 -15.25,-37.86 -22.87,-84.71 -22.87,-140.27 0,-44.67 8.98,-88.24 26.96,-130.73 17.98,-42.49 44.4,-80.62 79.26,-113.85 34.86,-33.23 77.62,-59.65 128.28,-79.53 50.66,-19.88 108.67,-29.96 174.04,-29.96 36.5,0 72.18,3 106.77,8.71 34.59,5.72 67.27,14.17 98.32,25.61 31.05,11.16 60.19,24.78 87.16,40.31 26.96,15.79 50.93,33.5 72.17,53.38l-68.63 127.19z"/>
   <path class="fil2" d="M5025.1 4551.24l0 122.98 -44.28 0 0 -329.01 97.05 0c20.8,0 38.93,2.45 54.3,7.27 15.37,4.81 28.07,11.62 38.16,20.49 10.1,8.87 17.67,19.66 22.64,32.2 4.97,12.54 7.42,26.54 7.42,41.99 0,15.37 -2.68,29.36 -8.03,42.06 -5.35,12.69 -13.15,23.63 -23.48,32.88 -10.32,9.18 -23.17,16.29 -38.47,21.42 -15.29,5.12 -32.81,7.72 -52.54,7.72l-52.77 0zm0 -35.33l52.77 0c12.7,0 23.94,-1.68 33.65,-5.05 9.71,-3.36 17.82,-8.1 24.4,-14.15 6.58,-6.04 11.55,-13.23 14.91,-21.64 3.37,-8.41 5.05,-17.67 5.05,-27.76 0,-20.96 -6.42,-37.32 -19.35,-49.1 -12.92,-11.78 -32.5,-17.67 -58.66,-17.67l-52.77 0 0 135.37z"/>
   <path id="1" class="fil2" d="M5561.98 4509.94c0,24.63 -3.9,47.27 -11.7,67.92 -7.8,20.57 -18.82,38.31 -33.04,53.15 -14.23,14.84 -31.28,26.38 -51.24,34.57 -19.96,8.18 -42.06,12.31 -66.23,12.31 -24.17,0 -46.19,-4.13 -66.08,-12.31 -19.88,-8.19 -36.94,-19.73 -51.16,-34.57 -14.23,-14.84 -25.24,-32.58 -33.04,-53.15 -7.8,-20.65 -11.7,-43.29 -11.7,-67.92 0,-24.62 3.9,-47.26 11.7,-67.91 7.8,-20.57 18.81,-38.31 33.04,-53.3 14.22,-14.92 31.28,-26.54 51.16,-34.8 19.89,-8.26 41.91,-12.39 66.08,-12.39 24.17,0 46.27,4.13 66.23,12.39 19.96,8.26 37.01,19.88 51.24,34.8 14.22,14.99 25.24,32.73 33.04,53.3 7.8,20.65 11.7,43.29 11.7,67.91zm-45.66 0c0,-20.19 -2.75,-38.39 -8.26,-54.45 -5.5,-16.13 -13.3,-29.67 -23.4,-40.84 -10.1,-11.09 -22.33,-19.65 -36.71,-25.62 -14.38,-5.96 -30.44,-8.95 -48.18,-8.95 -17.59,0 -33.57,2.99 -47.95,8.95 -14.38,5.97 -26.62,14.53 -36.79,25.62 -10.17,11.17 -18.05,24.71 -23.55,40.84 -5.51,16.06 -8.26,34.26 -8.26,54.45 0,20.19 2.75,38.32 8.26,54.38 5.5,15.98 13.38,29.52 23.55,40.69 10.17,11.09 22.41,19.58 36.79,25.46 14.38,5.89 30.36,8.88 47.95,8.88 17.74,0 33.8,-2.99 48.18,-8.88 14.38,-5.88 26.61,-14.37 36.71,-25.46 10.1,-11.17 17.9,-24.71 23.4,-40.69 5.51,-16.06 8.26,-34.19 8.26,-54.38z"/>
   <path id="2" class="fil2" d="M5671.65 4537.02l0 137.43 -44.28 0 0 -329.24 92.92 0c20.8,0 38.78,2.14 53.92,6.35 15.14,4.2 27.68,10.25 37.55,18.2 9.87,7.95 17.13,17.59 21.87,28.83 4.74,11.32 7.11,23.86 7.11,37.78 0,11.7 -1.83,22.56 -5.5,32.66 -3.67,10.09 -8.95,19.19 -15.91,27.22 -6.96,8.04 -15.45,14.92 -25.47,20.58 -10.01,5.66 -21.41,9.94 -34.11,12.85 5.51,3.21 10.41,7.87 14.69,13.99l95.9 130.78 -39.46 0c-8.11,0 -14.07,-3.14 -17.9,-9.41l-85.35 -117.7c-2.6,-3.67 -5.43,-6.27 -8.49,-7.87 -3.05,-1.61 -7.64,-2.45 -13.76,-2.45l-33.73 0zm0 -32.58l46.58 0c13,0 24.47,-1.53 34.34,-4.67 9.86,-3.13 18.12,-7.57 24.77,-13.3 6.66,-5.74 11.63,-12.55 14.99,-20.5 3.37,-7.95 5.05,-16.75 5.05,-26.31 0,-19.58 -6.42,-34.34 -19.35,-44.2 -12.92,-9.95 -32.19,-14.92 -57.74,-14.92l-48.64 0 0 123.9z"/>
   <path class="fil2" d="M3026.25 7501.48l0 -323.14 102.98 0c19.83,0 36.96,1.95 51.31,5.85 14.34,3.91 26.14,9.47 35.38,16.68 9.23,7.29 16.07,16.07 20.5,26.52 4.43,10.51 6.61,22.23 6.61,35.37 0,7.97 -1.2,15.63 -3.68,22.99 -2.48,7.36 -6.23,14.2 -11.27,20.58 -5.03,6.31 -11.34,11.94 -18.92,16.9 -7.59,4.96 -16.53,9.02 -26.75,12.17 23.59,4.66 41.39,13.15 53.41,25.46 12.02,12.32 18.03,28.55 18.03,48.68 0,13.67 -2.48,26.14 -7.51,37.41 -5.04,11.26 -12.4,20.95 -22.09,29.07 -9.69,8.11 -21.55,14.34 -35.6,18.77 -14.05,4.44 -30.12,6.69 -48.15,6.69l-114.25 0zm43.72 -147.15l0 112.45 69.85 0c12.47,0 23.21,-1.43 32.15,-4.28 8.94,-2.86 16.3,-6.84 22.09,-12.02 5.78,-5.19 9.99,-11.35 12.69,-18.48 2.71,-7.14 4.06,-15.02 4.06,-23.59 0,-16.67 -5.86,-29.82 -17.65,-39.51 -11.8,-9.69 -29.67,-14.57 -53.56,-14.57l-69.63 0zm0 -31.32l57.69 0c12.31,0 22.98,-1.36 31.99,-4.06 9.02,-2.7 16.53,-6.46 22.46,-11.27 5.94,-4.73 10.29,-10.59 13.15,-17.42 2.85,-6.76 4.28,-14.28 4.28,-22.39 0,-18.85 -5.71,-32.75 -17.13,-41.54 -11.41,-8.86 -29.14,-13.29 -53.18,-13.29l-59.26 0 0 109.97z"/>
   <path id="1" class="fil2" d="M3486.67 7466.78c13.37,0 25.31,-2.26 35.83,-6.76 10.51,-4.51 19.45,-10.82 26.74,-18.93 7.28,-8.11 12.84,-17.8 16.67,-29.07 3.83,-11.27 5.71,-23.66 5.71,-37.18l0 -196.28 43.49 0 0 196.43c0,18.62 -2.93,35.9 -8.86,51.83 -5.93,15.92 -14.42,29.74 -25.46,41.38 -11.05,11.65 -24.57,20.81 -40.49,27.42 -15.93,6.61 -33.8,9.92 -53.63,9.92 -19.83,0 -37.71,-3.31 -53.63,-9.92 -15.93,-6.61 -29.45,-15.77 -40.57,-27.42 -11.11,-11.64 -19.6,-25.46 -25.54,-41.38 -5.93,-15.93 -8.93,-33.21 -8.93,-51.83l0 -196.43 43.49 0 0 196.05c0,13.52 1.95,25.92 5.78,37.18 3.83,11.27 9.39,20.96 16.68,29.07 7.28,8.11 16.22,14.42 26.81,19.01 10.59,4.58 22.54,6.91 35.91,6.91z"/>
   <polygon id="2" class="fil2" points="3932.43,7178.34 3932.43,7213.94 3777.39,7213.94 3777.39,7327.06 3909.9,7327.06 3909.9,7362.67 3777.39,7362.67 3777.39,7501.71 3733.45,7501.71 3733.45,7178.34 "/>
   <polygon id="3" class="fil2" points="4230.82,7178.34 4230.82,7213.94 4075.78,7213.94 4075.78,7327.06 4208.29,7327.06 4208.29,7362.67 4075.78,7362.67 4075.78,7501.71 4031.84,7501.71 4031.84,7178.34 "/>
   <polygon id="4" class="fil2" points="4529.21,7178.34 4529.21,7213.94 4374.17,7213.94 4374.17,7321.2 4499.69,7321.2 4499.69,7355.46 4374.17,7355.46 4374.17,7465.88 4529.21,7465.88 4529.21,7501.48 4330.23,7501.48 4330.23,7178.34 "/>
   <polygon id="5" class="fil2" points="4855.32,7177.88 4855.32,7214.84 4750.98,7214.84 4750.98,7501.25 4707.27,7501.25 4707.27,7214.84 4602.48,7214.84 4602.48,7177.88 "/>
   <path id="6" class="fil2" d="M5228.07 7174.73c11.87,0 22.68,1.95 32.45,5.78 9.76,3.83 18.25,8.87 25.39,15.18 7.13,6.31 12.77,13.67 16.9,22.01 4.13,8.33 6.46,17.05 7.06,26.06l-25.02 4.96c-0.75,0.15 -1.42,0.22 -2.02,0.22 -1.96,0 -3.76,-0.52 -5.49,-1.57 -1.72,-1.06 -3,-2.93 -3.75,-5.64 -1.05,-3.9 -2.71,-7.96 -5.04,-12.17 -2.32,-4.2 -5.33,-8.03 -9.01,-11.49 -3.68,-3.45 -8.11,-6.31 -13.29,-8.64 -5.19,-2.25 -11.27,-3.38 -18.18,-3.38 -7.51,0 -14.27,1.2 -20.28,3.68 -6.01,2.41 -11.12,5.71 -15.4,10.07 -4.28,4.28 -7.59,9.31 -9.92,15.17 -2.33,5.79 -3.53,12.1 -3.53,18.86 0,5.25 0.68,10.36 1.96,15.17 1.27,4.81 3.15,9.69 5.7,14.57 2.56,4.96 5.86,9.99 9.92,15.17 4.06,5.26 8.94,10.67 14.65,16.45l92.84 94.8c5.71,-10.14 10.29,-20.81 13.67,-31.92 3.38,-11.2 5.63,-22.31 6.84,-33.58 0.3,-2.85 1.2,-5.11 2.7,-6.84 1.5,-1.65 3.61,-2.47 6.31,-2.47l24.79 0c-0.3,17.35 -3.08,34.4 -8.34,51.07 -5.26,16.75 -12.85,32.45 -22.76,47.1l67.6 68.13 -38.76 0c-4.35,0 -7.88,-0.53 -10.59,-1.58 -2.7,-1.05 -5.71,-3.23 -9.01,-6.53l-32.45 -32.75c-14.12,13.67 -30.35,24.56 -48.75,32.52 -18.4,7.96 -38.68,11.95 -60.77,11.95 -12.02,0 -23.81,-2.03 -35.38,-6.09 -11.57,-4.06 -21.86,-9.99 -30.95,-17.73 -9.08,-7.73 -16.45,-17.12 -22,-28.24 -5.56,-11.12 -8.34,-23.66 -8.34,-37.63 0,-10.52 1.8,-20.51 5.33,-29.9 3.53,-9.39 8.41,-18.03 14.65,-25.99 6.23,-7.96 13.59,-15.1 22.16,-21.41 8.56,-6.3 17.95,-11.71 28.17,-16.22 -9.17,-11.57 -15.93,-22.91 -20.29,-33.88 -4.35,-10.96 -6.53,-22.31 -6.53,-34.1 0,-10.97 2.03,-21.26 6.01,-30.87 3.98,-9.62 9.69,-18.03 17.2,-25.16 7.51,-7.14 16.68,-12.77 27.42,-16.91 10.74,-4.13 22.76,-6.23 36.13,-6.23zm-89.46 238.19c0,9.61 1.8,18.1 5.4,25.39 3.61,7.36 8.34,13.52 14.2,18.55 5.86,5.03 12.54,8.87 20.06,11.42 7.51,2.63 15.17,3.91 22.98,3.91 16.83,0 31.93,-3.01 45.3,-9.09 13.37,-6.09 25.16,-14.13 35.38,-24.19l-95.33 -94.87c-15.92,8.49 -27.86,18.55 -35.9,30.35 -8.04,11.79 -12.09,24.63 -12.09,38.53z"/>
   <polygon id="7" class="fil2" points="5851.63,7178.34 5851.63,7213.94 5696.59,7213.94 5696.59,7321.2 5822.11,7321.2 5822.11,7355.46 5696.59,7355.46 5696.59,7465.88 5851.63,7465.88 5851.63,7501.48 5652.65,7501.48 5652.65,7178.34 "/>
   <path id="8" class="fil2" d="M5920.39 7178.34l34.93 0c3.91,0 7.06,0.97 9.47,2.92 2.4,1.96 4.2,4.44 5.4,7.44l91.27 228.65c2.1,5.11 4.05,10.74 5.78,16.75 1.73,6.01 3.38,12.25 5.04,18.78 1.35,-6.53 2.85,-12.77 4.43,-18.78 1.57,-6.01 3.38,-11.64 5.48,-16.75l90.81 -228.65c1.06,-2.55 2.86,-4.88 5.41,-7.06 2.56,-2.18 5.71,-3.3 9.47,-3.3l35.15 0 -131.6 323.14 -39.44 0 -131.6 -323.14z"/>
   <polygon id="9" class="fil2" points="6506.55,7178.34 6506.55,7213.94 6351.51,7213.94 6351.51,7321.2 6477.03,7321.2 6477.03,7355.46 6351.51,7355.46 6351.51,7465.88 6506.55,7465.88 6506.55,7501.48 6307.57,7501.48 6307.57,7178.34 "/>
   <path id="10" class="fil2" d="M6635.25 7178.34c3.91,0 6.84,0.45 8.72,1.42 1.88,0.98 3.98,3.01 6.38,6.01l187.04 243.37c-0.45,-3.9 -0.75,-7.73 -0.9,-11.41 -0.15,-3.68 -0.23,-7.21 -0.23,-10.67l0 -228.72 38.31 0 0 323.14 -22.08 0c-3.46,0 -6.31,-0.6 -8.64,-1.8 -2.33,-1.2 -4.66,-3.23 -6.91,-6.09l-186.81 -243.14c0.3,3.75 0.52,7.43 0.67,11.04 0.15,3.6 0.23,6.91 0.23,9.91l0 230.08 -38.31 0 0 -323.14 22.53 0z"/>
   <polygon id="11" class="fil2" points="7216.68,7177.88 7216.68,7214.84 7112.34,7214.84 7112.34,7501.25 7068.63,7501.25 7068.63,7214.84 6963.84,7214.84 6963.84,7177.88 "/>
   <path id="12" class="fil2" d="M7583.79 7340.13c0,24.19 -3.83,46.42 -11.49,66.71 -7.66,20.2 -18.48,37.63 -32.45,52.2 -13.97,14.57 -30.72,25.91 -50.33,33.95 -19.6,8.04 -41.31,12.1 -65.04,12.1 -23.74,0 -45.37,-4.06 -64.9,-12.1 -19.53,-8.04 -36.28,-19.38 -50.26,-33.95 -13.97,-14.57 -24.78,-32 -32.45,-52.2 -7.66,-20.29 -11.49,-42.52 -11.49,-66.71 0,-24.18 3.83,-46.42 11.49,-66.7 7.67,-20.21 18.48,-37.63 32.45,-52.35 13.98,-14.65 30.73,-26.07 50.26,-34.18 19.53,-8.11 41.16,-12.17 64.9,-12.17 23.73,0 45.44,4.06 65.04,12.17 19.61,8.11 36.36,19.53 50.33,34.18 13.97,14.72 24.79,32.14 32.45,52.35 7.66,20.28 11.49,42.52 11.49,66.7zm-44.84 0c0,-19.83 -2.7,-37.7 -8.11,-53.48 -5.41,-15.85 -13.07,-29.14 -22.99,-40.11 -9.91,-10.89 -21.93,-19.3 -36.05,-25.16 -14.12,-5.86 -29.9,-8.79 -47.32,-8.79 -17.28,0 -32.98,2.93 -47.1,8.79 -14.12,5.86 -26.14,14.27 -36.13,25.16 -9.99,10.97 -17.73,24.26 -23.14,40.11 -5.41,15.78 -8.11,33.65 -8.11,53.48 0,19.83 2.7,37.64 8.11,53.41 5.41,15.7 13.15,28.99 23.14,39.96 9.99,10.89 22.01,19.23 36.13,25.01 14.12,5.79 29.82,8.72 47.1,8.72 17.42,0 33.2,-2.93 47.32,-8.72 14.12,-5.78 26.14,-14.12 36.05,-25.01 9.92,-10.97 17.58,-24.26 22.99,-39.96 5.41,-15.77 8.11,-33.58 8.11,-53.41z"/>
   <path id="13" class="fil2" d="M7852.21 7229.04c-1.35,2.25 -2.78,3.9 -4.28,5.03 -1.5,1.13 -3.45,1.73 -5.86,1.73 -2.55,0 -5.48,-1.28 -8.86,-3.83 -3.38,-2.56 -7.66,-5.41 -12.85,-8.49 -5.18,-3.08 -11.41,-5.86 -18.7,-8.41 -7.29,-2.56 -16.15,-3.83 -26.51,-3.83 -9.77,0 -18.41,1.27 -25.92,3.9 -7.51,2.63 -13.75,6.24 -18.78,10.74 -5.03,4.51 -8.86,9.77 -11.42,15.85 -2.55,6.09 -3.83,12.7 -3.83,19.76 0,9.01 2.26,16.45 6.69,22.38 4.43,5.94 10.29,11.04 17.58,15.25 7.28,4.21 15.54,7.81 24.78,10.89 9.24,3.08 18.71,6.31 28.4,9.62 9.69,3.3 19.15,6.98 28.39,11.11 9.24,4.13 17.5,9.39 24.79,15.7 7.28,6.31 13.14,14.05 17.58,23.21 4.43,9.17 6.61,20.43 6.61,33.8 0,14.13 -2.41,27.35 -7.22,39.74 -4.8,12.39 -11.79,23.21 -21.03,32.38 -9.24,9.16 -20.58,16.37 -34.02,21.63 -13.45,5.26 -28.77,7.89 -45.9,7.89 -20.88,0 -39.89,-3.84 -57.09,-11.42 -17.2,-7.59 -31.92,-17.88 -44.09,-30.87l12.62 -20.74c1.2,-1.72 2.7,-3.08 4.43,-4.2 1.73,-1.13 3.61,-1.73 5.71,-1.73 3.15,0 6.76,1.73 10.82,5.11 4.05,3.38 9.16,7.06 15.24,11.11 6.09,4.06 13.45,7.82 22.09,11.2 8.64,3.38 19.15,5.03 31.62,5.03 10.37,0 19.61,-1.43 27.72,-4.28 8.11,-2.86 15.02,-6.91 20.66,-12.1 5.63,-5.18 9.91,-11.34 12.92,-18.55 3,-7.21 4.5,-15.25 4.5,-24.11 0,-9.77 -2.18,-17.8 -6.61,-24.04 -4.43,-6.23 -10.29,-11.42 -17.5,-15.62 -7.21,-4.21 -15.4,-7.81 -24.64,-10.74 -9.24,-2.93 -18.7,-5.94 -28.39,-9.02 -9.69,-3.08 -19.15,-6.61 -28.39,-10.66 -9.24,-4.06 -17.51,-9.32 -24.72,-15.78 -7.21,-6.46 -12.99,-14.57 -17.42,-24.26 -4.44,-9.69 -6.69,-21.63 -6.69,-35.9 0,-11.42 2.25,-22.46 6.69,-33.13 4.43,-10.67 10.81,-20.13 19.23,-28.39 8.41,-8.27 18.85,-14.88 31.24,-19.83 12.4,-4.96 26.59,-7.44 42.67,-7.44 18.03,0 34.48,2.85 49.35,8.64 14.87,5.71 27.87,14.04 38.98,24.94l-10.59 20.73z"/>
   <g>
    <path class="fil3" d="M8771.62 6206.3c-1.43,1.52 -2.93,2.97 -4.46,4.35 -41.44,42.7 -83.47,83.16 -126.06,121.34 -55.16,49.46 -118.91,98.94 -191.19,148.39 -38.05,30.44 -80.85,49.46 -128.43,57.07 -47.56,7.61 -93.21,6.66 -136.96,-2.85 -43.75,-9.51 -81.8,-25.68 -114.16,-48.51 -32.34,-22.83 -52.31,-49.46 -59.92,-79.91 -7.61,-26.64 -10.46,-55.17 -8.56,-85.61 1.9,-30.43 4.75,-62.77 8.56,-97.01 -83.7,79.89 -175.03,152.18 -273.95,216.88 -98.92,64.67 -192.15,97.01 -279.65,97.01 -83.7,0 -150.3,-17.12 -199.76,-51.36 -49.46,-34.24 -81.8,-77.99 -97.02,-131.28 -28.65,-97.4 -34.65,-207.79 -17.99,-331.09 -44.69,53.69 -88.13,103.17 -130.41,148.48 -53.26,57.06 -107.49,110.33 -162.66,159.79 -55.17,49.46 -118.89,98.94 -191.2,148.39 -38.04,30.44 -83.7,47.56 -136.96,51.37 -53.27,3.8 -102.75,-1.91 -148.4,-17.12 -45.66,-15.22 -84.65,-39.95 -116.99,-74.19 -32.34,-34.26 -46.61,-74.21 -42.8,-119.87 7.61,-87.5 20.92,-178.83 39.95,-273.94 19.02,-95.12 43.75,-197.86 74.18,-308.19 53.27,-186.45 109.4,-376.69 168.38,-570.73 58.97,-194.05 115.08,-370.98 168.35,-530.79l-39.95 0c-76.09,0 -116.04,-19.02 -119.84,-57.07 -3.81,-38.05 43.75,-58.97 142.67,-62.78l57.08 0c34.25,-106.54 68.49,-197.85 102.73,-273.94 19.02,-45.66 53.26,-76.11 102.72,-91.33 49.48,-15.22 98.94,-21.88 148.4,-19.98 49.46,1.91 92.26,10.47 128.42,25.68 36.15,15.22 52.31,30.46 48.51,45.68l-91.33 313.89 285.38 0c41.85,-3.8 72.29,0 91.31,11.42 19.02,11.41 26.63,24.73 22.83,39.95 -3.81,15.21 -17.12,29.48 -39.95,42.8 -22.83,13.31 -57.07,21.87 -102.74,25.68l-291.07 0 -405.21 1443.95c-26.63,106.54 -24.72,157.91 5.71,154.1 30.44,-3.8 78.95,-41.85 145.53,-114.16 66.6,-72.28 146.49,-166.44 239.7,-282.5 52.82,-65.73 105.93,-132.39 159.35,-199.96 36.3,-81.91 80.2,-161.75 131.74,-239.51 104.63,-157.89 237.81,-291.07 399.5,-399.5 161.71,-108.45 343.4,-160.76 545.04,-156.96 95.14,0 181.69,15.22 259.7,45.66 78,30.44 124.6,78.01 139.82,142.69 15.22,79.9 -11.41,148.4 -79.9,205.47 30.44,7.6 55.17,15.21 74.19,22.82 19.03,7.61 26.64,15.22 22.83,22.83 -30.44,140.79 -68.48,275.85 -114.14,405.23 -45.65,129.35 -83.72,260.63 -114.15,393.79 -26.63,106.54 -25.68,157.91 2.85,154.1 27.35,-3.65 71.34,-38.78 131.92,-105.38 3.22,-7.77 7.88,-15.1 13.99,-21.59 247.18,-263.13 521.64,-431.33 822.1,-528.77 298.17,-96.71 620.47,-123.03 966.13,-103.08 39.54,2.18 69.86,36.03 67.68,75.57 -2.17,39.54 -36.02,69.86 -75.56,67.69 -329.2,-19.01 -634.55,5.53 -914.42,96.32 -277.6,90.02 -531.77,246.05 -761.46,490.57zm-5606.69 -2128.69c91.33,-3.81 175.03,11.41 251.12,45.65 76.11,34.24 119.86,87.53 131.28,159.81 11.41,53.27 2.85,99.87 -25.68,139.84 -28.54,39.95 -69.46,71.34 -122.72,94.16 -53.26,22.83 -113.19,37.1 -179.78,42.81 -66.58,5.7 -132.21,0.95 -196.89,-14.27 98.92,-19.02 166.45,-51.36 202.59,-97.02 36.16,-45.67 58.04,-89.42 65.65,-131.27 3.8,-38.05 -3.8,-68.49 -22.83,-91.31 -19.02,-22.83 -43.77,-33.29 -74.21,-31.39 -30.43,1.9 -64.67,20.92 -102.72,57.07 -38.04,36.14 -70.38,94.16 -97.02,174.08 -30.45,87.5 -62.79,180.71 -97.03,279.65 -34.24,98.92 -64.68,192.13 -91.31,279.65l-329.81 1199.82c72.13,-22.61 144.53,-50.91 217.24,-85.82 6.62,-3.16 13.5,-5.31 20.39,-6.52 67.99,-35.17 136.75,-77.12 206.32,-125.82 117.04,-81.93 236.35,-196.48 357.88,-343.67 43.89,-115.81 105.32,-224.78 184.32,-326.94 110.34,-142.69 250.17,-257.78 419.5,-345.29 169.3,-87.52 356.69,-117.96 562.16,-91.33 129.35,19.03 214.98,58.02 256.83,117.01 41.85,58.98 66.58,107.48 74.19,145.53 15.21,98.94 -12.37,196.9 -82.75,293.94 -70.39,97.02 -160.77,181.67 -271.1,253.97 -110.35,72.29 -231.14,124.6 -362.42,156.94 -131.26,32.34 -250.17,35.2 -356.7,8.56 -30.43,133.18 -34.24,243.51 -11.41,331.04 22.83,79.89 61.82,132.21 116.99,156.94 55.18,24.73 119.86,27.58 194.05,8.56 74.19,-19.03 154.1,-56.12 239.71,-111.29 85.6,-55.16 170.27,-120.81 253.97,-196.9 76.09,-68.48 152.2,-152.2 228.29,-251.12 58.55,-76.11 117.11,-151.1 175.67,-224.98 -3.49,-4.89 -6.89,-9.8 -10.17,-14.73 -38.04,-57.07 -47.55,-119.86 -28.53,-188.34 41.85,-148.38 130.32,-269.2 265.39,-362.41 135.08,-93.23 309.16,-141.74 522.21,-145.54 190.25,-3.81 336.74,21.87 439.47,77.04 102.74,55.19 169.32,136.03 199.76,242.56 22.82,87.52 8.56,165.52 -42.8,234 -51.37,68.5 -117.97,121.77 -199.76,159.81 -81.8,38.05 -169.33,53.27 -262.54,45.66 -93.21,-7.61 -170.27,-45.66 -231.14,-114.14 98.91,-19.02 175.98,-67.55 231.14,-145.54 55.17,-78 88.46,-155.04 99.87,-231.15 3.81,-72.29 -13.31,-113.19 -51.36,-122.7 -38.05,-9.51 -84.65,-0.95 -139.82,25.68 -55.18,26.63 -111.3,63.73 -168.37,111.29 -57.07,47.55 -98.92,90.37 -125.57,128.42 -41.85,53.26 -56.12,100.82 -42.8,142.67 13.32,41.87 42.8,80.87 88.48,117.01 45.65,36.14 100.82,72.29 165.49,108.43 64.7,36.14 127.48,75.16 188.35,117.01 60.87,41.85 114.14,89.41 159.81,142.67 45.65,53.28 70.38,114.16 74.19,182.64 11.41,133.18 -42.8,246.36 -162.67,339.58 -119.84,93.23 -290.11,139.83 -510.8,139.83 -102.72,0 -195.95,-10.46 -279.65,-31.38 -83.7,-20.93 -154.09,-51.37 -211.17,-91.31 -57.07,-39.97 -97.97,-86.58 -122.7,-139.84 -24.73,-53.26 -27.58,-108.43 -8.56,-165.52 15.22,-57.07 50.41,-104.62 105.57,-142.67 55.17,-38.05 117.97,-61.84 188.35,-71.36 70.38,-9.51 142.69,-2.85 216.88,20 74.19,22.83 137.92,66.58 191.2,131.26 -98.94,19.02 -179.79,48.5 -242.56,88.45 -62.8,39.97 -84.67,88.48 -65.65,145.55 15.22,41.85 40.9,72.28 77.06,91.31 36.15,19.02 69.43,28.53 99.87,28.53 64.68,3.8 119.86,-9.51 165.52,-39.95 45.65,-30.43 77.99,-62.77 97.02,-97.01 38.04,-49.46 43.75,-97.02 17.12,-142.7 -26.64,-45.65 -68.49,-91.3 -125.55,-136.96 -57.09,-45.65 -124.62,-92.28 -202.62,-139.84 -77.99,-47.55 -149.35,-97.01 -214.02,-148.37 -16.31,-12.95 -31.74,-26.09 -46.36,-39.41 -7.61,26.07 -22.59,53.46 -44.95,82.21 -152.2,186.44 -294.88,338.62 -428.05,456.58 -133.16,117.94 -285.37,216.88 -456.59,296.78 -41.85,22.83 -100.82,39.95 -176.91,51.36 -76.11,11.41 -155.06,10.46 -236.86,-2.85 -81.81,-13.32 -160.76,-44.71 -236.85,-94.17 -76.11,-49.48 -133.18,-125.57 -171.22,-228.29 -30.98,-83.43 -44.03,-173.96 -39.2,-271.56 -80.71,77.12 -169.42,143.87 -266.16,200.21 -67.74,39.46 -135.06,74.4 -201.93,104.83 -104.18,48.3 -207.24,84.54 -309.26,110.65l-170.82 626.35c-22.84,79.9 -47.57,145.53 -74.2,196.91 -26.64,51.36 -55.17,90.36 -85.61,116.99 -30.43,26.63 -61.82,43.75 -94.16,51.36 -32.36,7.61 -65.65,11.41 -99.89,11.41 -76.09,-3.8 -129.35,-26.63 -159.79,-68.48 -30.46,-41.85 -32.36,-100.82 -5.73,-176.93l213.93 -702.14c-373.58,-4.15 -734.76,-109.34 -1088.65,-212.41 -269.27,-78.42 -534.23,-155.6 -792.82,-182.76 -43.13,-4.4 -74.54,-42.99 -70.13,-86.12 4.4,-43.13 42.99,-74.54 86.12,-70.13 272.07,28.57 544.06,107.8 820.51,188.3 336.86,98.12 680.63,198.23 1031.66,204.65 16.67,-8.87 39.21,-14.96 67.64,-18.3l485.12 -1626.59c49.46,-167.4 125.55,-296.77 228.28,-388.08 102.74,-91.33 251.12,-140.79 445.17,-148.4zm1112.93 901.76c-57.07,19.02 -112.23,53.26 -165.5,102.72 -53.28,49.46 -104.64,108.45 -154.1,176.93 -49.46,68.49 -93.21,143.63 -131.28,225.44 -38.04,81.8 -70.38,162.65 -97.01,242.56 79.89,-22.82 161.71,-58.97 245.41,-108.45 83.7,-49.46 158.86,-103.67 225.44,-162.64 66.58,-58.99 118.89,-120.82 156.96,-185.49 38.04,-64.68 55.16,-125.57 51.36,-182.64 0,-26.63 -6.66,-56.12 -19.98,-88.46 -13.31,-32.34 -50.43,-38.99 -111.3,-19.97zm3806.77 325.31c98.94,-19.03 175.98,-49.46 231.15,-91.31 55.18,-41.85 90.37,-91.33 105.59,-148.4 3.81,-22.83 -6.66,-47.56 -31.39,-74.19 -24.73,-26.63 -67.55,-30.43 -128.42,-11.41 -83.7,22.83 -164.55,90.36 -242.56,202.61 -77.99,112.24 -146.48,235.9 -205.47,370.96 -58.97,135.09 -103.67,267.29 -134.11,396.67 -30.43,129.35 -39.94,224.49 -28.53,285.36 3.8,30.44 21.88,42.8 54.21,37.1 32.34,-5.71 68.49,-22.83 108.43,-51.37 39.97,-28.53 81.82,-62.79 125.57,-102.74 43.76,-39.95 82.75,-80.85 116.99,-122.7 26.64,-106.54 57.09,-214.97 91.33,-325.31 34.24,-110.35 66.58,-213.07 97.02,-308.2 -68.48,0 -121.75,-19.03 -159.81,-57.07z"/>
    <path class="fil4" d="M2752.7 4278.03c17.64,-6.64 37.36,2.29 44,19.93 6.64,17.65 -2.29,37.37 -19.93,44.01 -87.62,33.31 -187.71,390.3 -308.83,822.58 -77.08,275.09 -162.55,580.06 -262.34,855.97 -6.41,17.72 -26.01,26.88 -43.74,20.48 -17.72,-6.41 -26.88,-26.01 -20.47,-43.74 98.7,-272.92 183.92,-576.95 260.74,-851.15 126.23,-450.45 230.51,-822.45 350.57,-868.08z"/>
    <path class="fil4" d="M1981.45 6547.04c5.53,-18.01 24.65,-28.12 42.66,-22.59 18.02,5.53 28.13,24.65 22.6,42.66l-149.68 486.46c-5.53,18.02 -24.65,28.13 -42.67,22.6 -18.01,-5.53 -28.12,-24.65 -22.59,-42.67l149.68 -486.46z"/>
    <path class="fil4" d="M3874.03 5010.79c16.54,-9.08 37.35,-3.02 46.44,13.51 9.08,16.54 3.02,37.35 -13.51,46.44 -0.96,0.5 -330.19,178 -483.11,516.74 -7.74,17.2 -28.03,24.86 -45.22,17.12 -17.2,-7.75 -24.87,-28.03 -17.12,-45.23 162.45,-359.84 511.53,-548.03 512.52,-548.58zm-591.68 991.17c-1.32,-18.83 12.87,-35.19 31.7,-36.51 18.82,-1.32 35.19,12.87 36.51,31.7 2.97,41.25 9,83.97 18.42,127.97 9.1,42.49 21.37,86.15 37.05,130.8 6.2,17.8 -3.2,37.28 -21,43.48 -17.8,6.19 -37.29,-3.21 -43.48,-21.01 -16.77,-47.75 -29.83,-94.16 -39.46,-139.1 -10.08,-47.09 -16.56,-92.94 -19.74,-137.33z"/>
    <path class="fil4" d="M4454.42 5178.08c3.25,-18.6 20.99,-31.06 39.58,-27.82 18.6,3.24 31.06,20.99 27.82,39.58 -0.12,0.68 -43.52,241.53 -346.7,432.11 -15.94,10.04 -37.04,5.24 -47.07,-10.69 -10.04,-15.94 -5.24,-37.04 10.69,-47.08 277.5,-174.44 315.59,-385.5 315.68,-386.1zm-416.79 441.79c16.91,-8.34 37.41,-1.39 45.75,15.51 8.35,16.91 1.4,37.41 -15.51,45.76l-34.55 16.4c-12.65,5.8 -24.9,11.22 -36.36,15.99 -17.43,7.22 -37.44,-1.03 -44.66,-18.46 -7.22,-17.43 1.03,-37.44 18.46,-44.66 12.62,-5.26 23.97,-10.25 34.22,-14.95l32.65 -15.59z"/>
    <path class="fil4" d="M5413.12 4880.72c17.64,-6.64 37.36,2.29 44,19.94 6.64,17.64 -2.29,37.36 -19.93,44 -1.56,0.58 -547.08,199.31 -446.13,526.18 5.53,18.01 -4.58,37.13 -22.59,42.66 -18.02,5.53 -37.14,-4.58 -42.67,-22.59 -120.27,-389.37 485.61,-609.55 487.32,-610.19z"/>
    <path class="fil4" d="M5925.61 5110.86c-1.69,-18.75 12.15,-35.35 30.9,-37.04 18.75,-1.69 35.35,12.15 37.04,30.9 0.05,0.66 25.77,234.33 -199.55,381.16 -15.8,10.27 -36.96,5.76 -47.23,-10.04 -10.27,-15.8 -5.76,-36.95 10.04,-47.22 190.19,-123.92 168.84,-317.22 168.8,-317.76z"/>
    <path class="fil4" d="M4912.14 5955.63c16.17,-9.75 37.21,-4.55 46.95,11.62 9.75,16.17 4.54,37.21 -11.63,46.96 -19.77,11.92 -37.89,27.33 -52.99,45.17 -23.12,27.31 -39.4,60.19 -44.31,95 -4.84,34.16 1.28,70.71 22.61,106.14 12,19.91 28.81,39.59 51.05,58.46 14.41,12.17 16.19,33.76 4.02,48.16 -12.17,14.4 -33.76,16.19 -48.16,4.02 -28.26,-23.97 -49.85,-49.34 -65.49,-75.32 -30.07,-49.94 -38.61,-101.9 -31.7,-150.82 6.83,-48.26 28.77,-93.13 59.81,-129.78 20.01,-23.64 43.85,-43.95 69.84,-59.61z"/>
    <path class="fil4" d="M5658.16 6182.56c6.27,-17.8 25.82,-27.14 43.62,-20.87 17.8,6.27 27.13,25.82 20.86,43.62 -0.11,0.33 -40.62,122.1 -119.59,185.26 -14.69,11.74 -36.14,9.36 -47.88,-5.34 -11.75,-14.69 -9.36,-36.14 5.33,-47.89 62.66,-50.13 97.56,-154.49 97.66,-154.78z"/>
    <path class="fil4" d="M6875.66 4263.62c10.85,-15.43 32.18,-19.13 47.62,-8.28 15.43,10.85 19.13,32.18 8.28,47.61 -22.24,31.62 -38.33,62.6 -50.68,94.73 -12.6,32.76 -21.68,67.59 -29.58,105.94 -3.75,18.46 -21.8,30.38 -40.26,26.63 -18.46,-3.74 -30.38,-21.79 -26.63,-40.25 8.54,-41.45 18.56,-79.61 32.8,-116.66 14.5,-37.72 33.08,-73.65 58.45,-109.72z"/>
    <path class="fil4" d="M6672.47 4810.94c5.82,-17.94 25.11,-27.76 43.05,-21.94 17.93,5.83 27.76,25.12 21.93,43.06 -39.67,120.87 -101.09,311.95 -164.08,523.63 -62.87,211.19 -127.02,441.87 -172,641.24 -4.13,18.39 -22.42,29.95 -40.8,25.82 -18.38,-4.13 -29.95,-22.42 -25.82,-40.8 45.62,-202.17 110.08,-434.13 173.09,-645.79 62.83,-211.11 124.62,-403.32 164.63,-525.22z"/>
    <path class="fil4" d="M7900.94 4979.68c16.33,-9.45 37.23,-3.88 46.69,12.44 9.45,16.33 3.88,37.23 -12.45,46.68 -1.14,0.66 -410.21,229.56 -545.91,649.05 -5.75,17.94 -24.99,27.82 -42.92,22.07 -17.94,-5.74 -27.82,-24.98 -22.07,-42.92 144.05,-445.3 575.44,-686.62 576.66,-687.32z"/>
    <path class="fil4" d="M7314.16 6328.9c6.27,17.8 -3.07,37.35 -20.87,43.62 -17.8,6.27 -37.35,-3.07 -43.62,-20.87 -0.11,-0.33 -45.38,-119.44 -23.1,-314.61 2.14,-18.75 19.1,-32.23 37.85,-30.09 18.76,2.13 32.23,19.1 30.09,37.85 -20.44,178.95 19.55,283.81 19.65,284.1z"/>
    <path class="fil4" d="M8306.65 5403.73c8.72,-16.75 29.39,-23.29 46.14,-14.58 16.75,8.72 23.3,29.39 14.58,46.14 -0.23,0.45 -81.95,158.92 -181.26,589.17 -4.21,18.38 -22.56,29.89 -40.94,25.68 -18.38,-4.21 -29.89,-22.56 -25.68,-40.94 101.35,-439.1 186.93,-605 187.16,-605.47z"/>
    <path class="fil4" d="M8085.81 6212.01c3.24,-18.6 20.99,-31.06 39.58,-27.82 18.6,3.24 31.06,20.99 27.82,39.58 -0.04,0.27 -17.14,103.64 2.42,153.78 6.88,17.56 -1.82,37.4 -19.39,44.27 -17.56,6.87 -37.4,-1.82 -44.27,-19.39 -26.31,-67.43 -6.22,-190.09 -6.16,-190.42z"/>
    <path class="fil4" d="M8489.17 5048.74c-3.24,-18.59 9.22,-36.33 27.82,-39.58 18.6,-3.24 36.34,9.22 39.58,27.82 0.06,0.37 28.34,134.79 -170.06,246.68 -16.38,9.22 -37.19,3.39 -46.41,-12.99 -9.22,-16.38 -3.4,-37.19 12.98,-46.41 155.17,-87.51 136.13,-175.28 136.09,-175.52z"/>
   </g>
  </g>
 </g>
</svg>
